<svg xmlns="http://www.w3.org/2000/svg" width="220" height="130" viewBox="0 0 220 130"><path d="M0 0L220 0 220 130 0 130 0 0Z" fill="rgb(239, 239, 239)"/><path d="M109 47.1C109 55.4 109 63.7 109 72 112.3 68.9 115.7 65.7 119.2 62.6 119.2 57.4 119.2 52.3 119.2 47.1 123.8 47.1 127.2 47.1 131.2 47.1 131.2 50.3 130.5 61 131.5 63.6 139.7 70.6 150 80.8 150 80.8L141.7 89C141.7 89 130.6 78.8 125.6 73.7 119.5 78.7 114.3 83.8 108.5 88.9 93.7 88.8 78.8 88.8 64 88.8 64 74.8 64 60.9 64 47 79 47.4 94 47.8 109 47.1ZM76.7 59.1C76.7 65.5 76.7 70.9 76.7 76.7 83.3 76.7 89.9 76.7 96.5 76.7 96.5 70.9 96.4 65.5 96.4 59.1 89.8 59.1 83.3 59.1 76.7 59.1ZM108.7 72.2C106.1 74.9 103.5 77.5 100.9 80.2 101.2 80.3 102 80.4 101.2 80.4 103.6 83.2 106.7 85.9 108.5 88.6 108.6 83.2 108.7 77.7 108.7 72.2Z" fill="rgb(255, 255, 255)"/></svg>