<?xml version="1.0" encoding="utf-8"?><svg xmlns="http://www.w3.org/2000/svg" width="210" height="50" viewBox="0 0 210 50"><g fill="#fff"><path d="M37.7 33.8c-.6.8-1.4 1.2-2.4 1.2h-2c-.4 0-.7-.1-.9-.3s-.3-.5-.3-.9V7c0-1-.4-1.8-1.3-2.2-.9-.5-1.6-.8-2.1-1.1-.4-.3-.6-.6-.5-1 .2-.6.5-.8.8-.7l8.7 1c.5.1.8.2.9.5.1.3.1.4.1.5v27c0 1-.3 2-1 2.8M9.9 9.5v12c0 .6.1 1.1.2 1.5.2.4.7.5 1.7.5h4.4c.9 0 1.5-.2 1.7-.5.2-.3.3-.8.3-1.5v-12H9.9zm6.6 22.1s.2.1.5.2.4.4.4 1v7.3c0 1.1.2 1.9.5 2.3.3.5 1.1.7 2.3.7h17.2c1.3 0 2 .5 2 1.6s-.7 1.6-2 1.6h-22c-.9 0-1.9-.3-3-.9s-1.7-1.8-1.7-3.7V35c0-.8-.4-1.4-1.2-1.7-.8-.4-1.4-.6-1.8-.8-.5-.3-.7-.6-.6-1 .2-.4.4-.6.7-.6l8.7.7zm7-5.7c-.8.6-1.9.9-3.1.9h-13c-1.2 0-2.2-.3-3.1-.9-.8-.6-1.2-1.6-1.2-3.1V11.2c0-.7-.1-1.3-.3-1.7-.2-.4-.5-.8-.9-1-.4-.3-.9-.5-1.3-.7-.4-.2-.6-.4-.6-.6 0-.2 0-.4.1-.6.1-.2.3-.3.6-.3h23c.4 0 .6.1.7.2.1.1.2.4.2.8v15.5c.1 1.5-.3 2.5-1.1 3.1M58.4 43c1.4 1.1 3.1 1.6 4.9 1.6 1.8 0 3.4-.5 4.9-1.6 1.5-1.1 2.2-2.5 2.2-4.3 0-1.8-.7-3.2-2.2-4.3-1.5-1.1-3.1-1.7-4.9-1.7-1.9 0-3.5.6-4.9 1.7-1.4 1.1-2.2 2.6-2.2 4.3.1 1.8.8 3.2 2.2 4.3m-2.5-25.7c-2.7 1.2-5.6 2.2-8.5 2.8-.8.2-1.4 0-1.9-.6-.4-.5-.2-1 .7-1.5 3.6-1.7 6.6-3.5 9-5.5 2.4-2 3.8-3.6 4.3-4.8h-8.8c-.9 0-1.4-.1-1.5-.2-.2-.1-.4-.3-.6-.6l-1.6-2c-.3-.6-.3-1 0-1.3.3-.3.7-.3 1.1-.1.9.4 1.7.6 2.4.7.7.1 1.6.1 2.4.1h24.9c1.5 0 2.2.6 2.2 1.7s-.7 1.7-2.2 1.7h-9.5c-.2.5-.5 1.1-1 1.6-.4.5-.9 1.1-1.4 1.6 1.3.5 2.3.8 3.1 1 .8.2 1.6.4 2.5.5 1.1.2 2 .3 2.6.2.6 0 1.2.1 1.6.3 1.3.6 2.5 1.5 3.7 2.6 1.1 1.1 1.6 2.2 1.3 3.2-.2.6-.5 1-1.1 1.2-.5.2-1.4.2-2.5.1-1.8-.3-3.8-1-6.2-2.2-2.4-1.2-5-2.8-7.8-4.6-2.1 1.6-4.5 2.9-7.2 4.1m-10.6 9.3c-.9 0-1.4-.1-1.5-.2-.2-.1-.4-.3-.6-.6l-1.6-2c-.3-.6-.3-1 0-1.3.3-.3.7-.3 1.1-.1.8.4 1.5.6 2 .7.5.1 1.5.1 2.8.1h35.9c1.4 0 2.2.6 2.2 1.7s-.7 1.7-2.2 1.7H67v3c2.8.4 5.2 1.4 7.3 2.9 2.1 1.5 3.1 3.6 3.1 6.1 0 3-1.5 5.3-4.5 6.9-3 1.6-6.2 2.4-9.6 2.4s-6.7-.8-9.6-2.4c-3-1.6-4.5-3.9-4.5-6.9 0-2.5 1.1-4.6 3.2-6.1s4.6-2.5 7.4-2.9v-3H45.3zM97.5 21.3c1 1.6 2.3 2.4 4 2.4 1.6 0 3-.8 4-2.4 1.1-1.6 1.6-3.4 1.6-5.3s-.5-3.7-1.6-5.2-2.4-2.2-4-2.2-2.9.7-3.9 2.2S96 14 96 16s.5 3.7 1.5 5.3m12.4-13.2c2.4 2.2 3.6 4.8 3.6 7.9 0 3.1-1.2 5.7-3.6 7.9s-5.2 3.3-8.4 3.3-5.9-1.1-8.2-3.3-3.4-4.8-3.4-7.9c0-3.1 1.1-5.7 3.4-7.9s5-3.3 8.2-3.3 6 1.1 8.4 3.3m4.2 25.3c1.9-.2 3.5-.7 4.7-1.5V7c0-1-.4-1.8-1.3-2.2-.9-.5-1.6-.8-2.1-1.1-.4-.3-.6-.6-.5-1 .1-.4.4-.6.7-.6l8.6 1c.5.1.8.2.9.5.1.3.1.4.1.5V44c0 1-.3 2-1 2.8-.6.8-1.4 1.2-2.4 1.2H120c-.4 0-.7-.1-.9-.3-.2-.2-.3-.5-.3-.9V35.1c-1 .8-2.4 1.3-4.1 1.6-1.7.3-3.9.4-6.7.4H90c-.7 0-1.1 0-1.4-.1-.2 0-.5-.2-.7-.5L86.2 34c-.3-.4-.3-.7 0-1 .3-.3.6-.4 1.1-.2.7.4 1.4.6 2.1.7.7.1 1.6.2 2.8.2H107c2.8 0 5.2-.1 7.1-.3M142.2 23.7c-2.8 1.9-5.8 3.4-8.9 4.6-1 .4-1.6.3-1.9-.4-.2-.6 0-1.2.6-1.6 3.6-2.3 7-5.3 10.1-8.8 3.1-3.5 4.8-6.5 5.1-8.9.1-.8-.2-1.3-.8-1.7-.6-.4-1.2-.7-1.8-.9-.4-.1-.5-.5-.6-1 0-.5.3-.8.8-.7l10 .8c.7.1 1.2.4 1.3.9.1.5.1 1.1 0 1.6-.3 1.1-.7 2.3-1.4 3.6-.7 1.2-1.6 2.5-2.7 3.8 1.6 1 2.9 1.8 3.9 2.2 1 .5 2 .8 3.1 1.1 1 .2 1.9.4 2.6.4.7.1 1.3.3 1.8.6 1.3.9 2.5 2.1 3.5 3.5 1.1 1.4 1.4 2.5 1 3.4-.3.5-.7.9-1.3 1.1-.6.2-1.4.1-2.6-.3-1.9-.7-4.2-1.8-6.7-3.3-2.5-1.5-5.1-3.6-7.9-6.2-2 2.4-4.4 4.3-7.2 6.2m4.2 8c0-1-.2-1.7-.5-2.1-.4-.3-.8-.7-1.5-1.1-.7-.3-.9-.7-.7-1.1.2-.4.5-.6.8-.6l7.8.7c.3 0 .6.2.6.4.1.2.1.4.1.6v9.8h16.8c1.4 0 2.2.6 2.2 1.8 0 1.2-.7 1.8-2.2 1.8h-37.6c-.9 0-1.4-.1-1.7-.2-.3-.1-.5-.4-.7-.7l-1.5-2.4c-.3-.6-.3-1 0-1.3.3-.3.7-.3 1.1-.1.8.4 1.5.7 2.1.9.6.2 1.5.3 2.9.3h12v-6.7zM209 46.6c-.6.8-1.4 1.2-2.4 1.2h-1.8c-.4 0-.7-.1-.9-.3-.2-.2-.3-.5-.3-.9v-15c-1.3 1-2.9 1.6-4.8 2-1.9.4-4.4.5-7.5.5H181c-1.4 0-2.5-.4-3.4-1-.9-.7-1.3-1.9-1.3-3.6v-6.4c0-1.3-.5-2-1.5-2.3-1-.3-1.5-.6-1.5-1.1 0-.4.1-.6.2-.6.1-.1.3-.1.6-.1h16v-8.5h-13c-.2 0-.4-.2-.6-.5l-1.7-2.3c-.3-.3-.3-.7-.1-1.1.2-.4.5-.4 1-.2.7.4 1.4.6 2 .7.6.1 1.3.1 2.2.1H196c.4 0 .6.1.7.2s.2.4.2.8v11.7c0 .6-.2 1.1-.6 1.5-.4.4-.9.7-1.4.7h-11.7v7c0 .6.2 1.1.5 1.4.3.3.8.5 1.4.5h5.1c3 0 5.7-.1 8.1-.3 2.3-.2 4.1-.9 5.4-1.9V7c0-1-.4-1.8-1.3-2.2-.9-.5-1.6-.8-2.1-1.1-.5-.3-.6-.6-.5-1 .1-.4.4-.6.7-.6l8.6 1c.5.1.8.2.9.5v40.3c0 1-.3 1.9-1 2.7"/></g></svg>