<?xml version="1.0" standalone="no"?>
<!DOCTYPE svg PUBLIC "-//W3C//DTD SVG 1.1//EN" "http://www.w3.org/Graphics/SVG/1.1/DTD/svg11.dtd" >
<svg xmlns="http://www.w3.org/2000/svg">
<metadata>Generated by IcoMoon</metadata>
<defs>
<font id="icomoon" horiz-adv-x="1024">
<font-face units-per-em="1024" ascent="960" descent="-64" />
<missing-glyph horiz-adv-x="1024" />
<glyph unicode="&#x20;" horiz-adv-x="512" d="" />
<glyph unicode="&#xe900;" glyph-name="link2" d="M739.556 789.333l-284.444-284.444v-113.778h113.778l284.444 284.444 170.667-170.667v455.111h-455.111zM910.222 49.778h-796.444v796.444h284.444v113.778h-398.222v-1024h1024v398.222h-113.778z" />
<glyph unicode="&#xe901;" glyph-name="arrow_bar_l" horiz-adv-x="1920" d="M467.492-50.905c19.189-19.189 57.566-19.189 89.547 12.792 25.585 25.585 25.585 63.962 6.396 89.547l-332.603 332.603h1624.638c38.377 0 63.962 25.585 63.962 63.962s-25.585 63.962-63.962 63.962h-1637.431l326.207 332.603c25.585 25.585 19.189 63.962-6.396 89.547-25.585 31.981-63.962 31.981-89.547 12.792l-434.942-447.735c-12.792-15.223-12.792-25.585-12.792-44.773v-6.396c0-25.585 14.967-31.981 38.377-57.566z" />
<glyph unicode="&#xe902;" glyph-name="arrow_bar_r" horiz-adv-x="1920" d="M1452.508-50.905c-19.189-19.189-57.566-19.189-89.547 12.792-25.585 25.585-25.585 63.962-6.396 89.547l332.603 332.603h-1624.638c-38.377 0-63.962 25.585-63.962 63.962s25.585 63.962 63.962 63.962h1637.431l-326.207 332.603c-25.585 25.585-19.189 63.962 6.396 89.547 25.585 31.981 63.962 31.981 89.547 12.792l434.942-447.735c12.792-15.223 12.792-25.585 12.792-44.773v-6.396c0-25.585-14.967-31.981-38.377-57.566z" />
<glyph unicode="&#xe903;" glyph-name="infoPaper" d="M1011.637 186.088c-5.241 5.281-12.502 8.548-20.527 8.548-0.178 0-0.354-0.002-0.532-0.005h-107.105v734.808c0.009 0.28 0.014 0.609 0.014 0.94 0 8.2-3.265 15.638-8.566 21.084l0.006-0.007c-5.554 5.070-12.894 8.266-20.977 8.543l-0.055 0.001h-756.826c-8.138-0.278-15.478-3.474-21.058-8.567l0.026 0.023c-5.281-5.793-8.522-13.525-8.544-22.013v-778.192c0-0.17-0.001-0.373-0.001-0.575 0-95.144 57.762-176.799 140.133-211.807l1.506-0.569c3.4-1.328 7.333-2.159 11.442-2.298l0.060-0.002h646.736c4.050 0.119 7.874 0.953 11.393 2.379l-0.22-0.079c84.052 35.498 141.966 117.241 141.966 212.511 0 0.154 0 0.308 0 0.462v-0.024 13.802c-0.065 8.232-3.445 15.661-8.871 21.030l-0.002 0.002zM126.975 151.254v748.61h696.359v-704.246h-411.44c-0.070 0.001-0.153 0.001-0.236 0.001-8.109 0-15.456-3.263-20.798-8.547l0.003 0.003c-5.427-5.371-8.808-12.8-8.873-21.020v-13.815c-0.038-68.8-40.807-128.069-99.498-155.004l-1.062-0.436h-53.895c-59.459 27.235-100.113 86.043-100.56 154.396v0.059zM860.14-4.187h-478.808c33.771 37.006 55.768 85.275 59.764 138.564l0.046 0.773h518.572c-5.996-62.229-44.702-114.184-98.514-138.901l-1.060-0.436zM294.575 667.854h134.408c0.939-0.105 2.028-0.164 3.13-0.164 16.517 0 29.905 13.388 29.905 29.905s-13.388 29.905-29.905 29.905c-1.103 0-2.192-0.060-3.264-0.176l0.132 0.011h-134.408c-0.939 0.105-2.028 0.164-3.13 0.164-16.517 0-29.905-13.388-29.905-29.905s13.388-29.905 29.905-29.905c1.103 0 2.192 0.060 3.264 0.176l-0.132-0.011zM294.575 427.957h134.408c16.517 0 29.905 13.388 29.905 29.905s-13.388 29.905-29.905 29.905h-134.408c-16.517 0-29.905-13.388-29.905-29.905s13.388-29.905 29.905-29.905v0z" />
<glyph unicode="&#xe904;" glyph-name="arrow_middle_l" horiz-adv-x="614" d="M500.603 960l72.404-72.404-418.909-418.909 455.111-455.111-77.576-77.576-526.842 527.671z" />
<glyph unicode="&#xe905;" glyph-name="arrow_middle_r" horiz-adv-x="614" d="M113.397 960l-72.404-72.404 418.909-418.909-455.111-455.111 77.576-77.576 526.842 527.671z" />
<glyph unicode="&#xe906;" glyph-name="depth" d="M258.244 191.998v768.002h-255.998v-1024h1019.507v255.998z" />
<glyph unicode="&#xe907;" glyph-name="pen_2" horiz-adv-x="1184" d="M1152 754.726l-204.483 204.483-207.633-204.483h-611.884v-817.935h817.935v613.451l206.051 204.483zM1046.607 754.726l-456.158-456.158-117.974-17.297 17.297 117.974 456.158 456.158 100.676-100.676zM872.005 10.721h-670.078v670.078h464.018l-245.379-246.947-36.18-240.664 240.664 34.603 246.947 246.947v-464.018z" />
<glyph unicode="&#xe908;" glyph-name="arrow_u" d="M1024 118.856v197.487l-512 460.801-512-460.801v-197.487l512 468.115z" />
<glyph unicode="&#xe909;" glyph-name="arrow_r_2" horiz-adv-x="1072" d="M-0.008 951.63h187.063l460.462-503.63-460.462-503.63h-187.063l453.268 503.63zM424.482 951.63h194.258l453.268-503.63-453.268-503.63h-194.258l460.462 503.63z" />
<glyph unicode="&#xe90a;" glyph-name="bubble" d="M510.579 891.219c-246.595 0-448.993-200.073-448.993-446.668 0-4.654 0-6.979 0-11.634v-435.034h423.408c6.979 0 16.284 0 23.263 0 246.595 0 448.993 200.073 448.993 446.668s-200.073 446.668-446.668 446.668zM310.514 388.713c-30.239 0-53.51 23.263-53.51 53.51s23.263 53.51 53.51 53.51 53.51-23.263 53.51-53.51-23.263-53.51-53.51-53.51zM510.579 388.713c-30.239 0-53.51 23.263-53.51 53.51s23.263 53.51 53.51 53.51 53.51-23.263 53.51-53.51-23.263-53.51-53.51-53.51zM710.651 388.713c-30.239 0-53.51 23.263-53.51 53.51s23.263 53.51 53.51 53.51c30.239 0 53.51-23.263 53.51-53.51s-23.263-53.51-53.51-53.51z" />
<glyph unicode="&#xe90b;" glyph-name="quest" d="M513.084 942.656c-275.331 0-497.908-222.577-497.908-497.908s222.577-497.908 497.908-497.908c275.331 0 497.908 222.577 497.908 497.908s-222.577 497.908-497.908 497.908zM844.782 113.050c-85.273-84.55-202.343-137.304-331.698-137.304s-246.425 52.754-331.698 137.304c-84.55 85.273-137.304 202.343-137.304 331.698s52.754 246.425 137.304 331.698c85.273 84.55 202.343 137.304 331.698 137.304s246.425-52.754 331.698-137.304c84.55-85.273 137.304-202.343 137.304-331.698s-52.754-246.425-137.304-331.698zM464.666 712.853h96.836v-386.62h-96.836v386.62zM464.666 265.53h96.836v-96.836h-96.836v96.836z" />
<glyph unicode="&#xe90c;" glyph-name="star" d="M1022.63 565.116c-3.055 9.484-11.134 16.501-21.022 17.973l-0.143 0.018-322.775 47.27-143.926 290.674c-4.387 8.809-13.309 14.766-23.628 14.816h-0.007c-10.276-0.219-19.126-6.113-23.563-14.665l-0.072-0.151-143.573-290.674-321.364-47.27c-10.032-1.489-18.111-8.507-21.114-17.806l-0.052-0.185c-0.881-2.524-1.39-5.435-1.39-8.464 0-7.301 2.958-13.912 7.74-18.7v0l232.821-225.061-55.031-321.717c-0.203-1.231-0.32-2.651-0.32-4.099 0-14.612 11.845-26.457 26.457-26.457 4.503 0 8.743 1.126 12.456 3.11l-0.142-0.069 287.147 150.981 287.499-150.981c3.538-2.109 7.778-3.404 12.311-3.526l0.035-0.001c14.612 0 26.457 11.845 26.457 26.457v0c0.083 1.003 0.13 2.172 0.13 3.351s-0.047 2.348-0.139 3.503l0.010-0.152-54.678 317.484 232.469 226.472c5.395 4.804 8.777 11.769 8.777 19.524 0 2.986-0.502 5.855-1.424 8.527l0.055-0.183zM736.894 339.35c-5.024-4.712-8.153-11.391-8.153-18.801 0-1.584 0.143-3.134 0.417-4.639l-0.024 0.158 48.328-282.208-252.576 132.99c-3.54 1.841-7.729 2.921-12.17 2.921s-8.63-1.080-12.319-2.992l0.149 0.071-253.987-131.932 48.328 282.208c0.25 1.347 0.392 2.898 0.392 4.481 0 7.41-3.13 14.089-8.14 18.788l-0.014 0.013-204.248 198.251 282.208 40.92c8.839 1.311 16.17 6.776 20.037 14.312l0.071 0.151 125.935 255.751 126.288-254.693c3.937-7.687 11.268-13.152 19.961-14.446l0.147-0.018 282.208-40.92z" />
<glyph unicode="&#xe90d;" glyph-name="play" horiz-adv-x="870" d="M870.4 448l-870.4 512v-1024l870.4 512z" />
<glyph unicode="&#xe90e;" glyph-name="star1" d="M1022.63 565.116c-3.055 9.484-11.134 16.501-21.022 17.973l-0.143 0.018-322.775 47.27-143.926 290.674c-4.387 8.809-13.309 14.766-23.628 14.816h-0.007c-10.276-0.219-19.126-6.113-23.563-14.665l-0.072-0.151-143.573-290.674-321.364-47.27c-10.032-1.489-18.111-8.507-21.114-17.806l-0.052-0.185c-0.881-2.524-1.39-5.435-1.39-8.464 0-7.301 2.958-13.912 7.74-18.7v0l232.821-225.061-55.031-321.717c-0.203-1.231-0.32-2.651-0.32-4.099 0-14.612 11.845-26.457 26.457-26.457 4.503 0 8.743 1.126 12.456 3.11l-0.142-0.069 287.147 150.981 287.499-150.981c3.538-2.109 7.778-3.404 12.311-3.526l0.035-0.001c14.612 0 26.457 11.845 26.457 26.457v0c0.083 1.003 0.13 2.172 0.13 3.351s-0.047 2.348-0.139 3.503l0.010-0.152-54.678 317.484 232.469 226.472c5.395 4.804 8.777 11.769 8.777 19.524 0 2.986-0.502 5.855-1.424 8.527l0.055-0.183z" />
<glyph unicode="&#xe90f;" glyph-name="youtube" d="M908.983 801.832c-77.671 17.259-396.983 17.259-396.983 17.259s-319.311 0-396.983-17.259c-43.15-8.629-77.671-43.15-86.301-94.931-17.259-77.671-17.259-241.642-17.259-241.642s0-163.971 17.259-241.642c8.629-43.15 43.15-77.671 86.301-86.301 77.671-17.259 396.983-17.259 396.983-17.259s319.311 0 396.983 17.259c43.15 8.629 77.671 43.15 86.301 86.301 17.259 77.671 17.259 241.642 17.259 241.642s0 163.971-17.259 241.642c-8.629 51.78-43.15 86.301-86.301 94.931zM451.59 335.81v258.901l224.382-129.452-224.382-129.452z" />
<glyph unicode="&#xe910;" glyph-name="check" d="M325.816 221.085l-244.365 244.365-81.462-81.462 325.827-325.827 698.173 698.173-81.462 81.462z" />
<glyph unicode="&#xe911;" glyph-name="clip" d="M37.183 247.568c2.29 38.313 14.111 79.884 39.943 123.744l1.89 2.92 234.772 328.498 64.48-46.152-233.64-326.94c-84.797-146.486 48.477-240.381 54.183-244.233l3.054-2.357c151.168-126.6 244.766-40.208 259.438-24.636l420.637 579.77c24.568 44.589 31.644 85.792 21.085 122.717-17.063 58.77-73.742 90.91-74.337 91.17l-4.017 2.556c-98.875 70.054-175.24-26.029-178.36-30.112l-384.013-529.603c-31.177-53.056 10.855-89.946 19.687-96.815 29.851-25.369 56.544-36.387 80.781-33.965 29.651 2.92 48.477 24.999 48.707 25.265l302.368 406.456 63.648-47.345-303.166-407.521c-4.713-5.978-41.203-49.738-103.823-55.777-46.248-4.549-92.466 12.516-137.623 50.5-38.282 29.482-94.126 108.403-37.617 201.699l1.759 2.655 385.704 531.892c43.795 56.509 158.673 137.454 286.133 48.41 14.411-8.432 86.057-53.82 110.232-137.557 17.034-58.599 7.202-121.056-29.052-185.597l-2.489-3.883-425.683-586.41c-1.394-1.726-151.235-167.638-369.568 14.077-51.53 36.090-121.353 118.73-115.109 226.57z" />
<glyph unicode="&#xe912;" glyph-name="icon_1" d="M596.913 625.426c31.682 30.416 62.099 58.297 84.911 88.713 31.682 40.554 45.624 78.575 45.624 121.663 0 68.435-53.227 124.198-119.128 124.198-45.624 0-74.773-19.010-96.317-51.961-21.544 31.682-49.425 51.961-96.317 51.961-65.901 0-119.128-55.763-119.128-124.198 0-43.089 13.94-81.109 45.624-121.663 22.812-30.416 53.227-58.297 84.911-88.713l6.336-6.336c20.276-19.010 40.554-38.020 62.099-60.831 3.802-5.070 10.138-7.604 16.474-7.604s12.674 2.534 16.474 7.604c21.544 21.544 41.822 41.822 62.099 60.831l6.336 6.336zM558.894 650.772c-15.208-13.94-30.416-29.148-46.891-45.624-15.208 16.474-31.682 31.682-46.891 45.624l-6.336 6.336c-31.682 30.416-59.565 57.029-79.841 83.643-25.346 32.95-36.752 60.831-36.752 93.781 0 44.357 32.95 79.841 73.505 79.841 34.218 0 53.227-15.208 76.039-63.367 3.802-7.604 11.406-12.674 20.276-12.674s16.474 5.070 20.276 12.674c22.812 48.159 41.822 63.367 76.039 63.367 40.554 0 73.505-36.752 73.505-79.841 0-32.95-11.406-60.831-36.752-93.781-20.276-27.88-48.159-53.227-79.841-83.643l-6.336-6.336zM954.297 559.525c-26.614 107.723-57.029 167.286-92.515 176.158-5.070 1.268-10.138 2.534-15.208 2.534-44.357 0-72.237-48.159-78.575-82.375-7.604-45.624 1.268-114.059 16.474-168.554-50.693-3.802-96.317-65.901-126.732-117.861-31.682-55.763-59.565-125.465-63.367-162.218-1.268-12.674-3.802-57.029-3.802-88.713-12.674 0-21.544-10.138-21.544-22.812v-136.872c0-12.674 10.138-22.812 22.812-22.812h295.286c12.674 0 22.812 10.138 22.812 22.812v136.872c0 12.674-10.138 22.812-22.812 22.812h-21.544c3.802 55.763 26.614 83.643 49.425 115.326 21.544 27.88 45.624 59.565 59.565 112.791 10.138 43.089-2.534 138.138-20.276 212.911zM864.318-18.374h-249.663v91.247h249.663v-91.247zM931.487 356.753c-11.406-44.357-31.682-69.703-51.961-96.317-26.614-34.218-54.495-70.971-59.565-141.94h-183.762c0 27.88 1.268 72.237 3.802 82.375 3.802 26.614 26.614 88.713 58.297 144.474 40.554 69.703 74.773 95.049 93.781 95.049 1.268 0 2.534 0 3.802 0s2.534-1.268 3.802-1.268c0 0 1.268-1.268 1.268-1.268 1.268-2.534 5.070-19.010-17.742-65.901-13.94-30.416-34.218-59.565-44.357-74.773-1.268-2.534-2.534-5.070-3.802-6.336-7.604-10.138-3.802-25.346 6.336-31.682 3.802-2.534 8.872-3.802 12.674-3.802 7.604 0 15.208 3.802 19.010 10.138 1.268 2.534 2.534 3.802 3.802 6.336 40.554 60.831 86.177 138.138 65.901 183.762 0 0 0 0 0 0 0 2.534 0 3.802-1.268 6.336-20.276 50.693-35.485 136.872-26.614 183.762 3.802 19.010 20.276 44.357 34.218 44.357 1.268 0 2.534 0 3.802 0 8.872-2.534 35.485-43.089 59.565-145.742 17.742-77.307 26.614-158.416 19.010-187.564zM819.961 50.061c-6.336 0-12.674-1.268-16.474-6.336s-6.336-10.138-6.336-16.474 2.534-12.674 6.336-16.474c5.070-3.802 10.138-6.336 16.474-6.336 5.070 0 11.406 2.534 16.474 6.336 3.802 5.070 6.336 10.138 6.336 16.474s-2.534 12.674-6.336 16.474c-5.070 3.802-10.138 6.336-16.474 6.336zM432.161 118.496v0c0 31.682-2.534 76.039-3.802 88.713-3.802 36.752-31.682 106.455-63.367 162.218-29.148 51.961-74.773 112.791-126.732 117.861 16.474 54.495 25.346 121.663 16.474 167.286-6.336 34.218-34.218 82.375-78.575 82.375-5.070 0-10.138-1.268-15.208-2.534-34.218-8.872-65.901-68.435-91.247-176.158-17.742-73.505-30.416-168.554-20.276-212.911 13.94-53.227 38.020-84.911 59.565-112.791 24.078-30.416 45.624-58.297 49.425-114.059h-21.544c-12.674 0-22.812-10.138-22.812-22.812v-136.872c0-12.674 10.138-22.812 22.812-22.812h295.286c12.674 0 22.812 10.138 22.812 22.812v136.872c0 12.674-10.138 22.812-22.812 22.812zM147.013 261.704c-21.544 26.614-40.554 51.961-51.961 96.317-7.604 29.148 0 108.989 19.010 187.564 24.078 101.385 50.693 141.94 59.565 145.742 1.268 0 2.534 0 3.802 0 13.94 0 30.416-24.078 34.218-44.357 8.872-46.891-6.336-133.070-26.614-183.762 0 0 0 0 0 0-1.268-2.534-2.534-5.070-3.802-7.604-20.276-45.624 25.346-122.93 65.901-183.762 1.268-2.534 2.534-5.070 3.802-6.336 3.802-6.336 11.406-10.138 19.010-10.138 5.070 0 8.872 1.268 12.674 3.802 10.138 7.604 12.674 21.544 6.336 31.682-1.268 1.268-2.534 3.802-3.802 6.336-10.138 15.208-29.148 44.357-44.357 74.773-24.078 46.891-19.010 63.367-17.742 65.901 0 0 0 1.268 1.268 2.534 1.268 0 3.802 1.268 6.336 1.268 1.268 0 2.534 0 3.802 0 19.010 0 53.227-24.078 93.781-95.049 32.95-55.763 54.495-116.593 58.297-144.474 1.268-11.406 2.534-55.763 2.534-83.643h-183.762c-6.336 70.971-32.95 106.455-58.297 143.208zM409.349-18.374h-249.663v91.247h249.663v-91.247zM188.836 10.775c5.070-3.802 10.138-6.336 16.474-6.336 5.070 0 11.406 2.534 16.474 6.336 3.802 5.070 6.336 10.138 6.336 16.474s-2.534 12.674-6.336 16.474c-5.070 3.802-10.138 6.336-16.474 6.336s-12.674-2.534-16.474-6.336c-3.802-5.070-6.336-10.138-6.336-16.474s2.534-12.674 6.336-16.474z" />
<glyph unicode="&#xe913;" glyph-name="picture" d="M992.798 846.644c-19.262 19.277-45.879 31.2-75.281 31.2-0.223 0-0.446-0.001-0.669-0.002h-809.732c-0.207 0.001-0.451 0.002-0.695 0.002-58.774 0-106.421-47.647-106.421-106.421 0-0.245 0.001-0.489 0.002-0.733v0.038-645.456c-0.001-0.207-0.002-0.451-0.002-0.695 0-58.774 47.647-106.421 106.421-106.421 0.245 0 0.489 0.001 0.733 0.002h809.729c0.207-0.001 0.451-0.002 0.695-0.002 58.774 0 106.421 47.647 106.421 106.421 0 0.245-0.001 0.489-0.002 0.733v-0.038 645.456c0.002 0.231 0.003 0.504 0.003 0.778 0 29.358-11.926 55.929-31.198 75.135l-0.003 0.003zM952.241 89.914c-8.707-8.984-20.885-14.56-34.366-14.56-0.105 0-0.21 0-0.314 0.001h-810.444c-0.103-0.001-0.225-0.001-0.348-0.001-27.378 0-49.57 22.193-49.57 49.57 0 0.122 0 0.245 0.001 0.366v-0.018 645.456c-0.001 0.103-0.001 0.225-0.001 0.348 0 27.378 22.193 49.57 49.57 49.57 0.122 0 0.245 0 0.366-0.001h809.748c0.103 0.001 0.225 0.001 0.348 0.001 27.378 0 49.57-22.193 49.57-49.57 0-0.122 0-0.245-0.001-0.366v0.018-645.456c0.006-0.292 0.010-0.637 0.010-0.983 0-13.486-5.58-25.667-14.557-34.362l-0.013-0.012zM825.368 336.38l-173.323 299.849c-4.463 8.174-10.4 14.998-17.518 20.336l-0.161 0.116c-7.647 6.060-17.435 9.721-28.078 9.721s-20.432-3.661-28.173-9.794l0.094 0.073c-7.278-5.454-13.216-12.278-17.516-20.127l-0.162-0.325-103.994-182.336-42.291 73.489c-4.343 8.361-10.304 15.32-17.52 20.686l-0.159 0.113c-7.647 6.060-17.435 9.721-28.078 9.721s-20.432-3.661-28.173-9.794l0.094 0.073c-7.196-5.534-13.116-12.34-17.508-20.122l-0.171-0.33-108.847-189.616c-5.19-8.624-8.277-19.027-8.32-30.146v-0.012c0-0.009 0-0.019 0-0.029 0-7.412 1.662-14.435 4.632-20.718l-0.126 0.296c4.644-9.614 12.225-17.195 21.564-21.719l0.275-0.12c7.95-3.94 17.311-6.246 27.211-6.246 0.305 0 0.61 0.002 0.914 0.006h524.43c0.292-0.006 0.637-0.010 0.983-0.010 12.957 0 24.778 4.869 33.731 12.878l-0.049-0.042c9.183 8.568 14.908 20.74 14.908 34.25 0 0.146-0.001 0.291-0.002 0.438v-0.023c-0.278 11.164-3.463 21.53-8.822 30.438l0.156-0.279zM265.533 316.274l101.221 175.75 63.090-109.887c5.006-8.558 14.152-14.215 24.618-14.215 0.12 0 0.239 0.001 0.359 0.002h-0.018c0.118-0.002 0.258-0.003 0.398-0.003 10.352 0 19.379 5.672 24.143 14.078l0.071 0.138 126.179 218.734 165.004-284.597h-505.064z" />
<glyph unicode="&#xe914;" glyph-name="print" d="M168.819 581.779h46.224v-44.737h-46.224zM87.448 581.779h46.224v-44.737h-46.224zM349.253 76.064h218.774v-44.737h-218.774zM349.253 191.947h325.499v-44.95h-325.499zM349.253 307.83h325.499v-44.737h-325.499zM730.561 139.118v219.414h-437.122v-379.181h437.122zM936.552 621.185h-849.109c-11.561-0.109-22.004-4.811-29.613-12.357l0.005 0.005c-7.629-7.505-12.357-17.937-12.357-29.473 0-0.047 0-0.099 0-0.146v0.005-353.619c0.172-11.483 4.857-21.838 12.357-29.4l-0.005 0.005c7.609-7.546 18.047-12.243 29.587-12.357h161.067v219.627h526.804v-219.627h161.259c11.561 0.109 22.004 4.811 29.613 12.357l-0.005-0.005c7.499 7.557 12.185 17.911 12.357 29.363v353.65c0 23.528-19.076 42.604-42.604 42.604v0zM775.298 665.921h41.112v78.391h-41.112zM293.439 665.921h437.122v250.728h-437.122zM208.23 665.921h40.899v78.391h-40.899zM88.088 665.921h75.411v122.914h85.209v170.418h526.804v-170.418h85.209v-123.127h75.411c47.836-0.12 86.577-38.865 86.702-86.691v-353.629c-0.12-23.897-9.871-45.496-25.562-61.135v0c-15.644-15.654-37.258-25.338-61.135-25.348h-161.259v-203.651h-526.377v203.864h-161.046c-23.939 0.052-45.61 9.72-61.353 25.354l0.005-0.005c-15.659 15.623-25.348 37.222-25.348 61.088 0 0.021 0 0.036 0 0.057v-0.005 353.619c0 0.146 0 0.322 0 0.494 0 23.726 9.694 45.184 25.343 60.635l0.010 0.010c15.68 15.763 37.373 25.525 61.343 25.562h0.005z" />
<glyph unicode="&#xe915;" glyph-name="arrow_ty1_r" d="M310.599 952.12l503.686-503.686-100.744-100.744-503.686 503.686 100.744 100.744zM209.629 44.867l503.686 503.686 100.744-100.744-503.686-503.686-100.744 100.744z" />
<glyph unicode="&#xe916;" glyph-name="stop" d="M283.076 905.846h152.615v-992h-152.615v992zM588.307 905.846h152.615v-992h-152.615v992z" />
<glyph unicode="&#xe917;" glyph-name="refresh" d="M512 959.999c281.6 0 511.999-230.4 511.999-511.999s-230.4-511.999-511.999-511.999-511.999 230.4-511.999 511.999h102.399c0-225.279 184.32-409.599 409.599-409.599s409.599 184.32 409.599 409.599-184.32 409.599-409.599 409.599c-143.36 0-266.24-71.679-337.919-179.199h133.119v-102.399h-307.199v307.199h102.399v-128c92.16 128 240.639 204.8 409.599 204.8z" />
<glyph unicode="&#xe918;" glyph-name="write" horiz-adv-x="1026" d="M114.097 50.097h80.321l530.918 530.349-80.891 80.891-530.349-530.918zM1025.544-63.835h-1025.379v241.534l765.046 765.616c10.325 10.408 24.633 16.851 40.446 16.851s30.12-6.443 40.442-16.847l161.216-161.216c10.238-10.297 16.565-24.49 16.565-40.161s-6.328-29.864-16.568-40.163l-651.681-651.681h669.914zM725.336 741.657l80.321-80.321 80.891 80.321-80.891 80.891z" />
<glyph unicode="&#xe919;" glyph-name="calendar" d="M767.999 857.6h204.8c28.277 0 51.2-22.924 51.2-51.2v0-819.2c0-28.277-22.924-51.2-51.2-51.2v0h-921.599c-28.277 0-51.2 22.924-51.2 51.2v0 819.2c0 28.277 22.924 51.2 51.2 51.2v0h204.8v102.4h102.4v-102.4h307.2v102.4h102.4zM921.599 448.001h-819.2v-409.599h819.2zM665.6 755.201h-307.2v-102.4h-102.4v102.4h-153.6v-204.8h819.2v204.8h-153.6v-102.4h-102.4zM204.8 345.6h102.4v-102.4h-102.4zM460.8 345.6h102.4v-102.4h-102.4zM716.8 345.6h102.4v-102.4h-102.4z" />
<glyph unicode="&#xe91a;" glyph-name="naver" d="M385.299 320.354v-237.136h-285.944v729.561h286.878l252.467-380.113-0.311 161.433v218.68h285.944v-729.561h-285.944c0 0-246.842 372.92-254.346 382.926z" />
<glyph unicode="&#xe91b;" glyph-name="down2" d="M910.222 618.667h-284.444v284.444h-227.556v-284.444h-284.444l398.222-341.333zM910.222 448v-341.333h-796.444v341.333h-113.778v-455.111h1024v455.111z" />
<glyph unicode="&#xe91c;" glyph-name="arrow_bar_r2" d="M683.61 789.807l-79.423-79.423 204.232-204.232h-808.42v-116.3h805.586l-204.232-204.232 79.423-79.423 343.224 343.224z" />
<glyph unicode="&#xe91d;" glyph-name="menu" d="M0 889.436h1024v-139.488h-1024v139.488zM0 516.924h1024v-139.488h-1024v139.488zM0 146.052h1024v-139.488h-1024v139.488z" />
<glyph unicode="&#xe91e;" glyph-name="rg_tringle" horiz-adv-x="512" d="M504 448l-496 496v-992z" />
<glyph unicode="&#xe91f;" glyph-name="like" d="M742.395 918.001c-92.028-0.811-174.286-41.964-230.061-106.609l-0.334-0.397c-56.108 65.042-138.365 106.194-230.254 107.004l-0.141 0.002c-0.765 0.008-1.667 0.011-2.571 0.011-154.105 0-279.034-124.928-279.034-279.034 0-0.904 0.005-1.808 0.013-2.71l-0.002 0.138c0-193.532 174.076-351.224 437.75-590.835l74.238-67.583 74.238 67.583c263.674 239.611 437.75 397.303 437.75 590.835 0.008 0.765 0.011 1.667 0.011 2.571 0 154.105-124.928 279.034-279.034 279.034-0.904 0-1.808-0.005-2.71-0.013l0.138 0.002zM517.12 121.858l-5.12-5.12-5.12 5.12c-243.707 220.667-404.471 368.12-404.471 514.549-0.032 1.234-0.050 2.688-0.050 4.146 0 96.705 78.395 175.1 175.1 175.1 1.458 0 2.91-0.018 4.36-0.053l-0.214 0.005c81.473-0.422 151.392-49.45 182.276-119.548l0.504-1.282h95.742c31.003 71.48 100.871 120.615 182.241 120.829h0.027c1.234 0.032 2.688 0.050 4.146 0.050 96.705 0 175.1-78.395 175.1-175.1 0-1.458-0.018-2.91-0.053-4.36l0.005 0.214c0-146.429-160.764-293.882-404.471-514.549z" />
<glyph unicode="&#xe920;" glyph-name="home" d="M1023.467 427.872c-5.287-18.462-14.961-34.251-27.846-46.748l-0.026-0.025c-16.668-15.812-39.226-25.559-64.059-25.629h-16.673v-11.854c0-98.032 0-196.064 0-294.096 0.009-0.526 0.014-1.145 0.014-1.767 0-52.061-36.204-95.666-84.809-107.011l-0.743-0.146c-8.044-2.038-17.279-3.209-26.787-3.209-0.381 0-0.763 0.002-1.143 0.006h-155.319c-0.801-0.071-1.733-0.112-2.675-0.112-17.693 0-32.037 14.343-32.037 32.037 0 0.941 0.041 1.873 0.12 2.794l-0.008-0.12c0 76.567 0 153.455 0 230.023 0.035 0.719 0.054 1.562 0.054 2.409 0 29.548-23.953 53.501-53.501 53.501-1.485 0-2.955-0.060-4.41-0.179l0.191 0.013c-27.872 0-56.064 0-83.936 0-1.42 0.141-3.069 0.222-4.735 0.222-27.956 0-50.618-22.662-50.618-50.618 0-1.771 0.091-3.52 0.268-5.244l-0.018 0.216c0-76.247 0-152.815 0-229.062 0-25.95-11.213-37.162-37.162-37.162h-152.815c-1.467-0.070-3.187-0.11-4.916-0.11-60.688 0-109.886 49.197-109.886 109.886 0 1.729 0.040 3.448 0.119 5.158l-0.009-0.242c0 96.11 0 192.22 0 288.329v14.737c-11.533 0-22.426 0-32.037 2.883-34.533 5.489-62.155 30.112-71.918 62.479l-0.164 0.633c-3.453 9.193-5.451 19.817-5.451 30.907 0 23.716 9.138 45.298 24.086 61.416l-0.053-0.058c3.204 3.844 6.407 7.048 9.611 10.252l391.167 391.167c16.873 20.33 38.412 36.208 63.010 46.077l1.063 0.376h48.055c24.528-9.902 45.165-24.984 61.326-43.988l0.184-0.222q192.22-192.22 384.439-384.439c17.834-15.543 31.51-35.412 39.432-57.988l0.293-0.959zM671.064-2.38h12.494c34.92 0 70.16 0 105.080 0 43.249-2.243 67.918 18.902 66.957 67.597-1.922 104.76 0 209.519 0 313.959 0 25.95 11.213 37.162 37.162 37.162h39.085c18.553 0.263 33.491 15.365 33.491 33.956 0 8.465-3.098 16.207-8.219 22.152l0.037-0.044c-2.709 3.452-5.651 6.496-8.877 9.215l-0.093 0.076-403.021 404.302c-6.566 9.908-17.667 16.353-30.275 16.353s-23.709-6.444-30.191-16.219l-0.083-0.134-363.936-362.014c-16.659-16.979-32.037-32.037-50.297-50.618-5.676-5.777-9.181-13.704-9.181-22.45 0-5.248 1.262-10.202 3.499-14.574l-0.084 0.181c4.66-12.301 16.345-20.887 30.033-20.887 0.705 0 1.404 0.023 2.097 0.067l-0.094-0.005h36.201c26.911 0 37.803-11.213 37.803-37.803v-327.094c-0.073-1.013-0.115-2.196-0.115-3.387 0-27.602 22.376-49.977 49.977-49.977 1.507 0 2.997 0.067 4.47 0.197l-0.19-0.014h130.709v12.494c0 64.073 0 130.709 0 196.064-0.031 0.974-0.049 2.12-0.049 3.27 0 58.646 46.484 106.435 104.618 108.532l0.191 0.005c35.561 2.243 71.442 0 107.002 0 6.413-0.103 12.586-0.915 18.511-2.36l-0.571 0.117c50.109-10.609 87.17-54.472 87.17-106.991 0-0.905-0.011-1.807-0.033-2.707l0.003 0.133c0-64.073 0-130.709 0-196.064z" />
<glyph unicode="&#xe921;" glyph-name="arrow_middle_d" d="M0 641.601l72.404 72.404 418.908-418.908 455.111 455.111 77.576-77.576-527.671-526.84z" />
<glyph unicode="&#xe922;" glyph-name="arrow_middle_u" d="M1024 254.398l-72.404-72.404-418.909 418.909-455.111-455.111-77.576 77.576 527.672 526.841z" />
<glyph unicode="&#xe923;" glyph-name="arrow_d" d="M0 777.143v-197.487l512-460.801 512 460.801v197.487l-512-468.115z" />
<glyph unicode="&#xe924;" glyph-name="arrow_l_2" horiz-adv-x="1072" d="M1072.008 951.63h-187.063l-460.462-503.63 460.462-503.63h187.063l-453.268 503.63zM647.518 951.63h-194.258l-453.268-503.63 453.268-503.63h194.258l-460.462 503.63z" />
<glyph unicode="&#xe925;" glyph-name="file" d="M971.444 403.918v0l-522.172 522.172c-23.737 23.737-50.862 33.909-81.379 33.909s-57.642-10.172-81.379-33.909l-233.959-233.959c-23.737-23.737-33.909-50.862-33.909-81.379s10.172-57.642 33.909-81.379l593.374-593.374 47.469 47.469-593.374 593.374c-6.78 6.78-13.565 20.345-13.565 33.909s3.392 27.125 13.565 33.909l233.959 233.959c6.78 6.78 20.345 13.565 33.909 13.565s27.125-3.392 33.909-13.565l522.172-522.172c6.78-6.78 13.565-20.345 13.565-33.909s-3.392-27.125-13.565-33.909l-115.283-115.283c-6.78-6.78-20.345-13.565-33.909-13.565s-27.125 3.392-33.909 13.565v0l-406.884 400.104c-6.78 6.78-13.565 20.345-13.565 33.909s3.392 27.125 13.565 33.909c6.78 6.78 20.345 13.565 33.909 13.565s27.125-3.392 33.909-13.565l362.807-362.807 47.469 47.469-362.807 362.807c-23.737 23.737-50.862 33.909-81.379 33.909s-57.642-10.172-81.379-33.909c-23.737-23.737-33.909-50.862-33.909-81.379s10.172-57.642 33.909-81.379v0l406.884-400.104c23.737-23.737 50.862-33.909 81.379-33.909s57.642 10.172 81.379 33.909l115.283 115.283c23.737 23.737 33.909 50.862 33.909 81.379s-10.172 57.642-33.909 81.379z" />
<glyph unicode="&#xe926;" glyph-name="link" d="M953.707 889.704c-93.728 93.728-245.684 93.728-339.413 0.002l-200.588-200.588c-96.95-96.954-87.974-251.434 0-339.413 14.732-14.732 31.032-26.744 48.244-36.61l36.61 36.61c24.012 24.016 15.56 52.090 15.128 72.348-5.27 3.736-10.396 7.774-15.128 12.506-45.146 45.142-47.176 122.53 0 169.706 7.006 7.006 196.332 196.332 200.584 200.584 46.798 46.798 122.908 46.798 169.706 0s46.798-122.908 0-169.706l-132.586-132.586c3.834-21.214 26.844-71.466 15.008-154.362 0.578 0.568 1.27 0.934 1.846 1.508l200.588 200.588c93.724 93.728 93.724 245.684 0 339.413zM625.836 561.837c-14.73 14.732-31.032 26.744-48.24 36.61l-36.61-36.61c-24.016-24.012-15.564-52.086-15.132-72.344 5.274-3.736 10.4-7.774 15.132-12.506 45.146-45.146 47.176-122.53 0-169.706-7.022-7.022-212.030-212.030-216.132-216.132-46.798-46.798-122.908-46.798-169.706 0s-46.798 122.908 0 169.706l148.134 148.134c-3.834 21.214-26.846 71.466-15.008 154.362-0.578-0.568-1.274-0.938-1.85-1.512l-216.13-216.134c-93.724-93.728-93.724-245.684 0-339.413 93.728-93.724 245.682-93.724 339.411 0l216.132 216.132c95.152 95.152 89.952 249.462 0 339.413z" />
<glyph unicode="&#xe927;" glyph-name="pen" d="M844.926 639.686c10.090-10.090 25.223-10.090 35.31 0l65.576 65.576c7.567 10.090 7.567 25.223-2.523 35.31l-181.596 181.596c-10.090 10.090-25.223 10.090-35.31 0l-63.053-65.576c-10.090-10.090-10.090-25.223 0-35.31l181.596-181.596zM259.784-13.555l534.702 572.531-216.906 216.906-577.578-577.578 5.043-211.863v-20.177h1018.957v20.177z" />
<glyph unicode="&#xe928;" glyph-name="round_arrow_up" d="M316.135 389.585l44.671-46.39 151.196 149.477 151.196-149.477 44.671 46.39-195.864 195.864zM512 960c-283.49 0-512-228.51-512-512s228.51-512 512-512c283.49 0 512 228.51 512 512s-228.51 512-512 512zM838.442 121.558c-84.188-84.188-197.583-134.013-326.442-134.013-127.14 0-242.254 51.544-326.442 134.013-84.188 84.188-134.013 197.583-134.013 326.442 0 127.14 51.544 242.254 134.013 326.442 84.188 84.188 197.583 134.013 326.442 134.013 127.14 0 242.254-51.544 326.442-134.013 84.188-84.188 134.013-197.583 134.013-326.442 0-127.14-51.544-242.254-134.013-326.442z" />
<glyph unicode="&#xe929;" glyph-name="round_arrow_down" d="M316.135 506.415l44.671 46.39 151.196-149.477 151.196 149.477 44.671-46.39-195.864-195.864zM512-64c-283.49 0-512 228.51-512 512s228.51 512 512 512c283.49 0 512-228.51 512-512s-228.51-512-512-512zM838.442 774.442c-84.188 84.188-197.583 134.013-326.442 134.013-127.14 0-242.254-51.544-326.442-134.013-84.188-84.188-134.013-197.583-134.013-326.442 0-127.14 51.544-242.254 134.013-326.442 84.188-84.188 197.583-134.013 326.442-134.013 127.14 0 242.254 51.544 326.442 134.013 84.188 84.188 134.013 197.583 134.013 326.442 0 127.14-51.544 242.254-134.013 326.442z" />
<glyph unicode="&#xe92a;" glyph-name="review" d="M230.329 66.429c-69.375 0-124.876 24.976-166.503 74.928s-63.826 113.778-63.826 194.255c0 105.453 30.525 202.58 91.579 291.383s138.754 158.177 227.556 202.58l16.651-33.301c-38.85-30.525-72.152-69.375-102.676-113.778-30.525-47.176-52.725-105.453-63.826-172.055l58.277-13.874c66.603-13.874 116.551-41.627 152.628-83.253 36.074-38.85 55.501-88.802 55.501-144.303 0-61.050-19.427-108.225-61.050-144.303-38.85-38.85-86.026-58.277-144.303-58.277zM818.639 66.429c-69.375 0-124.876 24.976-166.503 74.928s-63.826 113.778-63.826 194.255c0 105.453 30.525 202.58 91.579 291.383s138.754 158.177 227.556 202.58l16.651-33.301c-38.85-30.525-72.152-69.375-102.676-113.778-30.525-47.176-52.725-105.453-63.826-172.055l58.277-13.874c66.603-13.874 116.551-41.627 152.628-83.253 36.074-38.85 55.501-88.802 55.501-144.303 0-61.050-19.427-108.225-61.050-144.303-38.85-38.85-86.026-58.277-144.303-58.277z" />
<glyph unicode="&#xe92b;" glyph-name="folder" d="M985.264 728.953h-451.581l-100.064 143.686c-7.698 10.265-20.526 17.962-33.354 17.962h-361.777c-23.093 0-38.488-17.962-38.488-38.488v-808.228c0-23.093 17.962-38.488 38.488-38.488h946.78c23.093 0 38.488 17.962 38.488 38.488v646.583c2.567 20.526-15.395 38.488-38.488 38.488zM79.535 811.059h300.197l56.446-82.106h-356.647v82.106zM946.776 82.37h-867.241v567.040h867.241v-567.040z" />
<glyph unicode="&#xe92c;" glyph-name="share" d="M826.534 380.299c-62.059 0-115.659-28.211-152.33-73.344l-282.093 118.478c0 8.463 2.822 14.104 2.822 22.567s-2.822 14.104-2.822 22.567l282.093 118.478c36.67-45.133 90.27-73.344 152.33-73.344 110.015 0 197.467 87.448 197.467 197.467s-87.448 197.467-197.467 197.467c-110.015 0-197.467-87.448-197.467-197.467 0-8.463 2.822-14.104 2.822-22.567l-282.093-118.478c-36.67 45.133-90.27 73.344-152.33 73.344-110.015 0-197.467-87.448-197.467-197.467s87.448-197.467 197.467-197.467c62.059 0 115.659 28.211 152.33 73.344l282.093-118.478c0-8.463-2.822-14.104-2.822-22.567 0-110.015 87.448-197.467 197.467-197.467s197.467 87.448 197.467 197.467c0 107.196-87.448 197.467-197.467 197.467zM741.908 741.381c11.285 33.852 45.133 62.059 84.63 62.059 47.956 0 87.448-39.493 87.448-87.448s-39.493-87.448-87.448-87.448c-14.104 0-28.211 2.822-39.493 11.285-28.211 14.104-47.956 42.315-47.956 76.167 0 8.463 2.822 16.926 2.822 25.389zM236.96 371.836c-11.285-5.641-25.389-11.285-39.493-11.285-47.956 0-87.448 39.493-87.448 87.448s39.493 87.448 87.448 87.448c14.104 0 28.211-2.822 39.493-11.285 28.211-14.104 47.956-42.315 47.956-76.167s-19.748-62.059-47.956-76.167zM826.534 95.384c-39.493 0-73.344 25.389-84.63 62.059-2.822 8.463-2.822 16.926-2.822 25.389 0 33.852 19.748 62.059 47.956 76.167 11.285 5.641 25.389 11.285 39.493 11.285 47.956 0 87.448-39.493 87.448-87.448s-39.493-87.448-87.448-87.448z" />
<glyph unicode="&#xe92d;" glyph-name="facebook1" d="M767.967 959.788l-132.79 0.213c-149.185 0-245.595-98.913-245.595-252.008v-116.192h-133.514c-11.537 0-20.88-9.353-20.88-20.891v-168.35c0-11.537 9.353-20.88 20.88-20.88h133.514v-424.8c0-11.537 9.343-20.88 20.88-20.88h174.198c11.537 0 20.88 9.353 20.88 20.88v424.8h156.109c11.537 0 20.88 9.343 20.88 20.88l0.064 168.35c0 5.54-2.205 10.845-6.115 14.765s-9.236 6.125-14.776 6.125h-156.163v98.498c0 47.342 11.282 71.375 72.952 71.375l89.453 0.032c11.527 0 20.869 9.353 20.869 20.88v156.322c0 11.516-9.332 20.859-20.848 20.88z" />
<glyph unicode="&#xe92e;" glyph-name="kakao1" d="M403.712 562.985l-29.525-83.243h59.008zM512 917.374c-282.752 0-512-179.541-512-401.024 0-143.189 95.829-268.843 240-339.755-55.424-189.867-56.875-190.72-47.488-196.224 11.776-6.869 27.051 0.213 228.565 141.269 29.525-4.139 59.904-6.315 90.923-6.315 282.752 0 512 179.541 512 401.024s-229.248 401.024-512 401.024zM258.475 404.393c0-15.445-13.269-28.032-29.525-28.032s-29.525 12.587-29.525 28.032v174.336h-46.080c-16 0-28.971 12.885-28.971 28.715s12.928 28.757 28.928 28.757h151.253c16 0 28.971-12.885 28.971-28.715s-13.013-28.757-28.971-28.757h-46.080zM487.936 376.745c-30.72 0-25.045 24.107-39.211 50.987h-90.069c-14.037-26.667-8.533-50.987-39.211-50.987-29.568-0.043-34.773 17.963-25.771 45.696l70.656 184.747c4.992 14.080 20.096 28.544 39.339 28.971 19.285-0.427 34.432-14.891 39.381-28.971 46.635-144.64 113.237-230.485 44.885-230.443zM656 380.67h-94.763c-49.451 0-19.371 66.773-28.288 226.176 0 16.171 13.525 29.355 30.165 29.355s30.165-13.141 30.165-29.355v-172.373h62.763c15.616 0 28.288-12.075 28.288-26.88-0.043-14.848-12.715-26.923-28.331-26.923zM887.211 402.772c-1.067-7.723-5.205-14.677-11.477-19.371-40.747-30.763-70.869 58.923-110.635 96.896l-10.24-10.197v-64c0-16.213-13.227-29.355-29.568-29.355-16.299 0-29.525 13.141-29.525 29.355v200.747c0 16.171 13.227 29.355 29.525 29.355s29.525-13.141 29.525-29.355v-63.061c54.485 40.875 84.693 113.92 119.125 79.744 33.792-33.536-36.181-62.891-65.152-103.339 68.437-94.379 81.451-96.725 78.421-117.419z" />
<glyph unicode="&#xe92f;" glyph-name="twitter" d="M1024 765.504c-38.080-16.704-78.656-27.776-120.96-33.152 43.52 25.984 76.736 66.816 92.352 116.032-40.576-24.192-85.376-41.28-133.12-50.816-38.528 41.024-93.44 66.432-153.344 66.432-116.224 0-209.792-94.336-209.792-209.984 0-16.64 1.408-32.64 4.864-47.872-174.528 8.512-328.96 92.16-432.704 219.584-18.112-31.424-28.736-67.392-28.736-106.112 0-72.704 37.44-137.152 93.248-174.464-33.728 0.64-66.816 10.432-94.848 25.856 0-0.64 0-1.472 0-2.304 0-102.016 72.768-186.752 168.192-206.272-17.088-4.672-35.712-6.912-55.040-6.912-13.44 0-27.008 0.768-39.744 3.584 27.2-83.136 104.384-144.256 196.16-146.24-71.424-55.872-162.112-89.536-260.288-89.536-17.216 0-33.728 0.768-50.24 2.88 92.992-59.968 203.2-94.208 322.048-94.208 386.304 0 597.504 320 597.504 597.376 0 9.28-0.32 18.24-0.768 27.136 41.664 29.568 76.672 66.496 105.216 108.992z" />
<glyph unicode="&#xe930;" glyph-name="symbol" d="M537.411 399.342v291.953h-537.411v-487.671h534.167l-94.074 101.642 97.318 94.074zM386.029 344.194h-235.725l-1.082 206.53h236.807v-206.53zM799.090 511.798v181.66h-141.652v-183.822l-120.026-110.294-3.244-195.717 195.717 180.578 200.042-181.66 94.074 103.806z" />
<glyph unicode="&#xe931;" glyph-name="close_2" d="M1024 915.575l-44.425 44.425-468.686-468.686-468.686 468.686-42.203-44.425 466.464-468.686-466.464-466.464 44.425-44.425 466.464 466.464 468.686-466.464 44.425 44.425-468.686 466.464z" />
<glyph unicode="&#xe932;" glyph-name="arrow_bar_l_2" d="M340.39 106.193l79.423 79.423-204.232 204.232h808.42v116.3h-805.586l204.232 204.232-79.423 79.423-343.224-343.224z" />
<glyph unicode="&#xe933;" glyph-name="link1" d="M934.156 838.412c-37.443 37.443-87.369 58.036-140.728 58.036-53.044 0-103.282-20.594-140.728-58.036l-193.148-193.148c-13.105-13.105-24.336-27.77-32.765-43.372 0 0 0 0 0 0s0 0 0 0 0 0 0 0 0 0 0 0c-42.747-77.072-29.333-174.738 33.075-237.146 4.992-4.992 11.231-7.489 17.786-7.489 6.24 0 12.795 2.498 17.471 7.174 9.673 9.673 9.673 25.586 0 35.259-46.804 47.12-56.791 120.134-24.652 178.171 0 0 0 0 0 0s0 0 0 0c6.24 11.547 14.665 22.468 24.336 32.451l193.148 193.148c28.084 28.084 65.525 43.372 105.155 43.372s77.387-15.289 105.155-43.372c58.036-58.036 58.036-152.585 0-210.622l-192.839-192.839c-9.673-9.673-9.673-25.586 0-35.259 4.992-4.992 11.231-7.174 17.786-7.174s12.795 2.498 17.786 7.174l192.839 192.839c77.696 77.072 77.696 203.137 0.31 280.832zM583.426 529.186c-9.673 9.673-25.586 9.673-35.259 0s-9.673-25.586 0-35.259c46.804-46.804 56.791-119.82 24.652-178.171 0 0 0 0 0 0s0 0 0 0c-6.24-11.547-14.665-22.468-24.336-32.451l-193.148-193.148c-28.084-28.084-65.525-43.372-105.155-43.372s-77.387 15.289-105.155 43.372c-28.084 28.084-43.372 65.525-43.372 105.155s15.289 77.387 43.372 105.155l193.148 193.148c9.673 9.673 9.673 25.586 0 35.259s-25.586 9.673-35.259 0l-193.148-193.148c-37.443-37.443-58.036-87.369-58.036-140.728 0-53.044 20.594-103.282 58.036-140.728s87.369-58.036 140.728-58.036 103.282 20.594 140.728 58.036l192.215 193.462c13.105 13.105 24.336 27.77 32.765 43.686 0 0 0 0 0 0s0 0 0 0 0 0 0 0 0 0 0 0c43.062 77.696 29.333 175.363-32.765 237.77z" />
<glyph unicode="&#xe934;" glyph-name="txt" d="M977.45 810.116v111.523h-111.523v-71.179h-720.953v71.179h-111.523v-111.523h71.179v-720.953h-71.179v-111.523h111.523v71.179h720.953v-71.179h111.523v111.523h-71.179v720.953h71.179zM866.914 89.162h-0.982v-0.982h-720.953v0.982h-0.982v720.953h0.982v0.982h720.953v-0.982h0.982v-720.953zM544.811 578.218v-339.16h-79.379v339.16h-142.354v72.487h364.086v-72.487h-142.354z" />
<glyph unicode="&#xe935;" glyph-name="gallery" d="M49.802 921.497v-944h944v944h-944zM953.931 881.62v-711.075l-229.271 178.435-113.309-115.965-285.426 283.432-236.25-227.609v592.783h864.255zM89.675 17.369v219.302l1.661-1.661 234.258 225.616 286.091-284.098 116.629 119.288 225.286-175.111 0.666 0.666v-104.001h-864.586zM709.704 522.429c-67.785 0-122.942 55.158-122.942 122.942s55.158 122.942 122.942 122.942 122.942-55.158 122.942-122.942-55.158-122.942-122.942-122.942zM709.704 728.443c-45.855 0-83.069-37.214-83.069-83.069s37.214-83.069 83.069-83.069 83.069 37.214 83.069 83.069-37.214 83.069-83.069 83.069z" />
<glyph unicode="&#xe936;" glyph-name="player" d="M516.713-18.465c-255.718 0-464 208.282-464 464s208.282 464 464 464c255.718 0 464-208.282 464-464s-208.282-464-464-464zM516.713 871.835c-234.987 0-426.301-191.316-426.301-426.301s191.316-426.301 426.301-426.301 426.301 191.316 426.301 426.301-191.316 426.301-426.301 426.301zM395.449 243.536c-3.143 0-6.596 0.943-9.425 2.516-5.969 3.453-9.425 9.738-9.425 16.334v350.279c0 6.596 3.453 12.881 9.425 16.334s12.881 3.453 18.849 0l303.471-175.298c5.969-3.453 9.425-9.738 9.425-16.334s-3.453-12.881-9.425-16.334l-303.471-174.982c-2.826-1.57-6.285-2.516-9.425-2.516zM414.299 579.991v-284.932l246.925 142.309-246.925 142.625z" />
<glyph unicode="&#xe937;" glyph-name="line_type" d="M850.402 33.92v39.436h154.55v-39.436zM642.614 33.92v39.436h154.55v-39.436zM434.704 33.92v39.436h154.55v-39.436zM226.877 33.92v39.436h154.589v-39.436zM19.048 33.92v39.436h154.589v-39.436zM19.048 428.282v39.436h985.904v-39.436zM19.048 822.644v39.436h985.904v-39.436z" />
<glyph unicode="&#xe93e;" glyph-name="Edit_icon06" d="M59.371 908.652v-912h671.241l240.759 237.547v674.452h-912zM932.851 250.255l-218.286-215.081h-616.666v761.767h321.337v73.192h513.622v-619.878z" />
<glyph unicode="&#xe93f;" glyph-name="Edit_icon07" d="M963.022 0.827h-912v912h912v-912zM89.545 39.348h834.959v834.959h-834.959v-834.959zM725.475 459.881c0 131.615-97.907 238.516-218.286 238.516s-218.286-106.9-218.286-238.516c0-131.615 97.907-238.516 218.286-238.516 45.583 0 88.276 15.412 123.267 41.732l41.732-41.732 31.778 31.778-40.445 40.445c38.201 43.014 61.956 101.763 61.956 166.287zM507.184 266.31c-95.665 0-173.349 86.996-173.349 193.571s77.684 193.571 173.349 193.571 173.349-86.996 173.349-193.571c0-52.326-18.617-99.514-48.795-134.502l-32.422 32.422-31.778-31.778 30.815-30.815c-26.647-18.297-57.78-28.891-91.17-28.891z" />
<glyph unicode="&#xe940;" glyph-name="Edit_icon08" d="M962.704 1.47h-912v912h912v-912zM89.223 39.992h834.959v834.959h-834.959v-834.959zM390.659 352.661l-47.188-107.219h-51.362l190.359 424.057h50.4l189.722-424.057h-52.644l-47.188 107.219h-232.091zM505.582 614.287l-94.376-215.081h190.359l-95.983 215.081z" />
<glyph unicode="&#xe941;" glyph-name="Edit_icon09" d="M372.441 241.418c-36.905 0-66.598 13.15-89.080 39.662s-33.723 61.084-33.723 104.139c0 55.993 16.543 108.169 49.418 156.527s74.022 84.626 122.804 108.593l8.908-18.028c-20.998-15.907-39.45-36.481-55.357-61.508s-27.572-55.993-34.36-92.898l31.39-7.423c34.996-8.060 62.144-22.694 81.657-44.116s29.269-47.297 29.269-77.203c0-32.027-10.817-57.902-32.239-77.839-21.634-19.937-47.722-29.906-78.688-29.906zM688.676 241.418c-36.905 0-66.598 13.15-89.080 39.662s-33.723 61.084-33.723 104.139c0 55.993 16.543 108.169 49.418 156.527s74.022 84.626 122.804 108.593l8.908-18.028c-20.998-15.907-39.45-36.481-55.357-61.508s-27.572-55.993-34.36-92.898l31.39-7.423c34.996-8.060 62.144-22.694 81.657-44.116s29.269-47.297 29.269-77.203c0-32.027-10.817-57.902-32.239-77.839-21.634-19.937-47.722-29.906-78.688-29.906z" />
<glyph unicode="&#xe942;" glyph-name="sns" d="M510.166-9.404c-255.718 0-464 208.282-464 464s208.282 464 464 464 464-208.282 464-464c0-255.718-208.282-464-464-464zM510.166 880.897c-234.987 0-426.301-191.316-426.301-426.301s191.316-426.301 426.301-426.301 426.301 191.316 426.301 426.301-191.316 426.301-426.301 426.301zM497.913 572.403v-43.666h97.071v-41.152h-97.071v-287.764h-49.634v287.764h-43.666v41.152h43.666v37.381c0 74.142 52.15 114.038 108.696 114.038 25.761-0.627 52.15-8.484 72.569-23.873l-20.735-40.523c-15.396 10.992-34.244 17.277-51.523 17.277-32.357 0-59.372-21.365-59.372-60.634z" />
<glyph unicode="&#xe943;" glyph-name="ft-weight" d="M793.529 820.756c52.85-38.833 79.821-91.144 79.821-158.025 0-47.458-13.479-88.45-39.911-122.968-26.971-33.979-63.639-57.165-110.565-68.498 57.704-10.784 102.467-35.596 135.369-73.89 32.363-38.833 48.539-86.83 48.539-144.537 0-73.89-28.587-132.136-85.752-174.741s-135.369-63.639-234.064-63.639h-394.784v864h384c91.683 0 164.495-18.873 217.349-57.704zM667.87 554.333c24.273 18.873 36.677 45.303 36.677 78.743 0 32.902-12.401 58.243-36.677 76.588s-57.704 26.971-100.312 25.893h-209.798v-209.798h209.798c42.608 0 76.049 9.168 100.312 28.587zM690.516 187.587c29.665 20.493 44.225 49.617 44.225 86.291 0 35.596-14.56 63.099-44.225 83.058s-70.657 29.665-123.507 29.126h-209.798v-228.133h209.798c52.85-1.078 94.381 9.168 123.507 29.665z" />
<glyph unicode="&#xe944;" glyph-name="ft-color" d="M70.736 809.659v-92.709h39.039v53.673h300.574v-678.739h-36.111v-39.039h110.762v39.039h-35.621v678.739h300.089v-46.355h39.039v85.394zM728 292.439h218.602v-218.602h-218.602v218.602z" />
<glyph unicode="&#xe945;" glyph-name="ft-decoration" d="M152.984 875.984v-95.271h40.118v55.156h308.373v-657.366h-36.603v-40.118h113.326v40.118h-36.603v657.366h308.373v-47.636h40.118v87.753zM95.317 36.095h852.422v-40.118h-852.422v40.118z" />
<glyph unicode="&#xe946;" glyph-name="txt-tit" d="M360.271 556.334c-17.543 13.539-34.162 30.471-49.552 50.786s-25.24 37.859-29.237 52.63c-4.925-16.929-15.079-35.7-29.856-56.323s-31.083-37.546-48.626-51.092l-18.777 16.311c25.852 17.237 46.475 39.704 61.862 66.477 15.392 27.084 23.080 54.477 23.080 82.481v51.704h24.006v-50.472c0-27.084 7.695-53.861 22.774-79.716s35.7-47.397 61.246-64.018l-16.929-18.777zM421.207 476.624v189.588h-73.253v21.542h73.253v103.103h24.314v-314.237h-24.314zM493.223 529.255v22.161h291.459v-22.161h-291.459zM541.856 616.967v146.499h24.314v-50.472h145.266v50.472h24.314v-146.499h-193.9zM711.436 691.139h-145.266v-52.011h145.266v52.011zM92.505 244.559v-71.094h14.772c64.631 0 106.795 1.538 126.188 4.31l1.846-20.929c-17.543-2.153-36.626-3.385-57.249-4.001s-57.249-0.926-110.185-0.926v202.208h146.806v-21.542h-122.492v-66.789h114.184v-21.235h-113.878zM290.097 237.176v-169.584h-24.314v314.546h24.314v-122.798h53.244v-21.855h-53.244zM452.292 147c-24.006 0-43.089 9.541-57.861 28.931s-22.161 45.241-22.161 78.176c0 33.241 7.389 59.401 21.855 78.484s33.855 28.624 58.167 28.624c24.006 0 43.703-9.541 58.474-28.624s22.161-45.241 22.161-78.484c0-33.241-7.389-59.401-22.161-78.484-15.079-19.083-34.468-28.624-58.474-28.624zM452.292 339.666c-16.617 0-30.163-7.695-40.625-23.393s-15.698-36.319-15.698-61.862c0-25.546 5.231-46.167 15.698-61.862s24.006-23.7 40.625-23.7c16.311 0 29.856 8.001 40.625 23.7 10.465 15.698 16.005 36.319 16.005 61.862 0 25.852-5.231 46.475-15.698 62.172-10.465 15.392-24.314 23.080-40.932 23.080zM591.097 67.59v314.546h24.314v-314.546h-24.314zM662.81 214.709v19.389h291.77v-19.389h-291.77zM709.285 70.975v68.015h174.509v27.392h-174.509v19.695h198.514v-66.171h-174.509v-29.543h181.587v-19.389h-205.593zM710.204 262.103v114.49h197.591v-19.695h-173.584v-27.392h168.046v-18.466h-168.046v-29.237h177.585v-19.389h-201.588z" />
<glyph unicode="&#xe947;" glyph-name="txt-head" d="M393.333 557.649v26.37h-96.922v15.962h211.66v-15.962h-96.922v-26.37c21.050-0.924 37.010-5.090 47.885-12.72s16.423-17.119 16.423-29.148c0-13.419-6.246-23.827-18.735-31.462s-30.534-11.337-54.361-11.337-41.639 3.703-54.361 11.337c-12.49 7.635-18.735 18.043-18.735 31.462 0 12.029 5.553 21.745 16.423 29.148s26.831 11.798 47.654 12.72zM487.942 615.942c-17.812 2.543-35.162 8.096-51.586 16.653s-27.76 17.582-33.774 26.831c-5.553-8.326-16.653-16.884-33.313-25.909s-33.774-14.802-51.356-17.351l-10.408 14.111c19.663 1.39 37.938 6.938 54.591 16.192s26.831 19.433 30.764 30.071h-72.864v15.962h164.7v-15.962h-72.634c3.471-10.638 13.65-20.587 30.071-29.841s34.928-14.802 54.822-16.653l-9.021-14.111zM402.351 543.070c-18.043 0-31.692-2.312-40.942-7.173s-13.88-11.337-13.88-19.894c0-8.558 4.625-15.5 14.111-20.355 9.255-4.855 22.899-7.404 40.711-7.404s31.231 2.543 40.711 7.404c9.486 4.855 14.111 11.568 14.111 20.355 0 8.558-4.625 15.269-13.88 19.894s-22.899 7.173-40.942 7.173zM645.474 685.105c-2.773-30.996-14.802-57.371-36.086-79.11s-43.721-37.010-66.62-45.803l-12.259 13.65c21.976 7.173 42.562 19.894 61.302 38.168s29.841 37.245 33.079 56.904h-80.731v15.962h101.319zM567.75 479.692v69.399h17.582v-53.437h127.46v-15.962h-145.037zM706.542 610.157v-77.956h-17.582v166.552h17.582v-72.864h34.466v-15.962h-34.466zM81.046 329.794v15.731h50.427v38.399h18.043v-38.399h50.658v-15.731h-119.128zM186.301 286.304h30.996v98.543h17.582v-216.518h-17.582v102.476h-27.064c0-7.865-0.461-14.111-1.159-18.735-0.924-4.625-3.24-9.947-7.173-16.192s-9.716-11.337-17.119-15.269c-7.404-3.933-15.5-6.014-24.519-6.014-14.341 0-26.139 4.855-35.856 14.341-9.486 9.716-14.341 21.745-14.341 36.317s4.855 26.831 14.341 36.317c9.486 9.716 21.515 14.572 35.856 14.572 10.177 0 19.433-2.543 27.76-7.865 8.326-5.090 14.341-12.49 18.274-21.976zM140.267 300.881c-9.947 0-17.812-3.24-24.058-9.947s-9.255-15.036-9.255-25.448c0-10.408 3.24-18.967 9.486-25.448s14.341-9.716 24.058-9.716c9.716 0 17.812 3.24 24.058 9.947s9.486 15.036 9.486 25.448c0 10.177-3.007 18.505-9.255 25.216-6.476 6.476-14.572 9.947-24.519 9.947zM258.24 161.391v228.086h17.812v-228.086h-17.812zM310.054 200.948v15.731h211.66v-15.731h-211.66zM486.091 352.461h-122.37v-71.014h126.071v-15.962h-143.654v102.476h139.951v-15.5zM545.774 212.747v89.985h83.276v50.658h-83.276v15.731h100.855v-82.12h-83.043v-58.985c54.129 0 89.291 1.621 105.486 5.090l2.543-15.5c-21.284-3.24-63.15-4.855-125.841-4.855zM708.162 277.285v-116.124h-17.582v228.086h17.582v-96.23h39.557v-15.962h-39.557zM830.994 265.025c-17.119 0-31.231 5.322-42.793 16.192-11.337 10.638-17.119 24.749-17.119 41.87s5.783 31.231 17.119 41.87c11.337 10.638 25.678 15.962 42.793 15.962s31.231-5.322 42.562-15.962c11.337-10.638 16.884-24.519 16.884-41.87 0-17.119-5.783-30.996-17.119-41.87-11.105-10.87-25.216-16.192-42.332-16.192zM830.994 364.957c-12.49 0-22.667-3.933-30.303-11.568s-11.798-17.812-11.798-30.534 3.933-22.899 11.568-30.764c7.865-7.635 17.812-11.568 30.534-11.568 12.49 0 22.667 3.933 30.534 11.568s11.798 17.812 11.798 30.764-3.933 22.899-11.798 30.534-18.043 11.568-30.534 11.568zM799.763 170.182v74.024h17.812v-58.062h132.317v-15.962h-150.129zM926.064 222.924v166.552h17.812v-166.552h-17.812z" />
<glyph unicode="&#xe948;" glyph-name="Text_icon06" d="M311.555 765.716h636.68v-33.273h-636.68v33.273zM311.555 463.39h636.68v-33.273h-636.68v33.273zM311.555 162.724h636.68v-33.273h-636.68v33.273zM181.808 749.086c0-27.563-22.339-49.905-49.905-49.905s-49.905 22.339-49.905 49.905c0 27.563 22.339 49.905 49.905 49.905s49.905-22.339 49.905-49.905zM181.808 446.75c0-27.563-22.339-49.905-49.905-49.905s-49.905 22.339-49.905 49.905c0 27.563 22.339 49.905 49.905 49.905s49.905-22.339 49.905-49.905zM181.808 146.083c0-27.563-22.339-49.905-49.905-49.905s-49.905 22.339-49.905 49.905c0 27.563 22.339 49.905 49.905 49.905s49.905-22.339 49.905-49.905z" />
<glyph unicode="&#xe949;" glyph-name="Text_icon07" d="M358.591 736.411h577.947v-30.203h-577.947v30.203zM358.591 189.036h577.947v-30.203h-577.947v30.203zM102.273 781.708h109.099v-255.565h-57.76v206.872h-51.339v48.694zM273.65 151.661v-48.317h-192.147v39.636l94.751 97.396c8.68 8.68 15.101 16.984 20.383 24.911 4.905 8.304 7.551 15.101 7.551 21.517 0 7.927-3.022 14.348-9.434 18.877s-14.725 6.798-25.672 6.798c-10.95 0-22.652-2.646-35.108-8.304s-24.535-13.209-36.237-23.405l-22.652 43.035c33.6 24.911 67.57 37.754 102.301 37.754 16.984 0 32.086-2.646 45.302-8.304s23.405-13.209 30.579-23.029c7.174-9.815 10.95-21.517 10.95-34.355s-4.152-26.428-12.832-40.013c-8.68-13.97-20.759-28.687-36.237-44.92l-58.89-59.266h117.403z" />
<glyph unicode="&#xe94a;" glyph-name="click" d="M885.266 456.667l-46.224 50.848c-9.246 9.246-23.98 9.246-33.225 0-2.889-2.889-4.911-6.356-6.067-10.112-9.246 6.935-22.533 6.356-30.911-2.022-2.889-2.889-4.911-6.356-6.067-10.112-9.246 6.935-22.533 6.356-30.911-2.022-2.889-2.889-4.911-6.356-5.778-9.824l-21.669 21.669c-9.246 9.246-23.98 9.246-33.225 0s-9.246-23.98 0-33.225l83.782-83.782-49.693-7.8c-13.289-2.022-23.691-13.578-23.691-27.158 0-10.112 8.378-18.491 18.491-18.491h116.14c18.202 0 34.958 6.935 47.959 19.934l19.355 19.355c12.713 12.713 19.934 29.758 19.934 47.671-0.578 16.466-6.935 32.647-18.202 45.070zM874.288 372.307l-19.355-19.355c-10.4-10.4-24.269-16.178-39.291-16.178h-116.14c-3.467 0-6.067 2.889-6.067 6.067 0 7.511 5.489 13.867 13.001 15.024l61.827 9.824c2.311 0.289 4.046 2.022 4.911 4.046 0.578 2.311 0 4.622-1.445 6.356l-92.449 92.449c-4.334 4.334-4.334 11.556 0 15.89 2.311 2.311 5.2 3.178 7.8 3.178s5.778-1.157 7.8-3.178l61.537-61.537c2.311-2.311 6.356-2.311 8.667 0 1.157 1.157 1.733 2.889 1.733 4.334s-0.578 3.178-1.733 4.334l-25.133 25.133c-4.334 4.334-4.334 11.556 0 15.89s11.556 4.334 15.89 0l25.133-25.133c2.311-2.311 6.356-2.311 8.667 0 1.157 1.157 1.733 2.889 1.733 4.334s-0.578 3.178-1.733 4.334l-12.713 12.713c-4.334 4.334-4.334 11.556 0 15.89s11.556 4.334 15.89 0l13.001-13.001c0 0 0 0 0 0v0c0 0 0 0 0 0s0 0 0 0v0c0 0 0 0 0 0 2.311-2.311 6.356-2.311 8.667 0s2.311 6.356 0 8.667l-0.578 0.578c-2.022 2.022-3.178 4.911-3.178 7.8s1.157 5.778 3.467 8.089c4.334 4.334 11.556 4.334 15.602 0.289l46.224-50.56c9.246-10.112 14.445-23.402 14.445-37.267 0-14.735-5.778-28.602-16.178-39.004zM737.923 500.871c-8.956 19.934-28.891 32.647-50.56 32.647-30.624 0-55.469-24.845-55.469-55.469 0-21.669 12.713-41.315 32.647-50.56 0.867-0.289 1.733-0.578 2.6-0.578 2.311 0 4.622 1.445 5.489 3.756 1.445 3.178 0 6.646-3.178 8.089-15.313 6.935-25.422 22.244-25.422 39.291 0 23.691 19.355 43.045 43.045 43.045 16.756 0 32.358-10.112 39.291-25.422 1.445-3.178 4.911-4.622 8.089-3.178 3.467 1.733 4.622 5.2 3.467 8.378zM249.674 333.882c-14.156-6.356-29.758-9.535-46.804-9.535-16.178 0-30.624 3.756-43.625 11.267-12.713 7.511-22.533 18.202-29.469 31.78s-10.4 29.18-10.4 46.224c0 18.78 3.756 35.247 11.556 49.982s18.491 26.002 32.069 34.089c13.578 8.089 28.891 12.135 46.224 12.135 14.735 0 28.311-2.311 40.736-6.935v-16.466c-13.001 6.356-26.58 9.246-41.026 9.246-14.735 0-27.447-3.467-38.715-10.112-11.267-6.935-19.645-16.178-25.713-28.602-6.067-12.135-8.956-26.291-8.956-41.893 0-14.735 2.889-28.022 8.667-39.867s13.867-20.802 23.98-27.158c10.4-6.356 22.533-9.535 36.402-9.535 16.756 0 32.069 3.467 45.357 10.689v-15.313zM285.5 327.525v189.522h14.735v-189.522h-14.735zM348.769 487.867c-2.889 0-5.489 1.157-7.511 3.178s-3.178 4.622-3.178 8.089c0 2.889 1.157 5.2 3.178 7.511 2.022 2.022 4.622 3.178 7.8 3.178s5.778-0.867 7.8-2.889c2.022-2.022 3.178-4.622 3.178-7.8s-1.157-5.778-3.178-7.8c-2.311-2.311-4.911-3.467-8.089-3.467zM341.546 327.525v127.986h14.735v-127.986h-14.735zM482.242 333.303c-10.112-6.067-21.669-8.956-34.378-8.956-11.556 0-21.669 2.6-30.624 8.089-8.956 5.2-15.89 13.001-21.091 22.824-4.911 9.824-7.511 21.091-7.511 33.513 0 13.289 2.6 25.422 8.089 36.115s13.001 19.067 23.113 24.845c9.824 5.778 21.091 8.956 33.801 8.956 10.4 0 20.224-2.022 28.891-6.067v-15.89c-9.535 6.067-19.355 9.246-30.047 9.246-9.535 0-17.913-2.311-25.422-6.935-7.223-4.622-13.001-11.267-17.045-19.645s-6.067-17.913-6.067-28.602c0-15.89 4.046-28.602 12.135-38.136s19.067-14.445 32.937-14.445c12.135 0 23.402 3.467 32.937 10.689v-15.602zM587.693 327.525l-59.515 62.692h-0.578v-62.692h-14.735v189.522h14.735v-121.338h0.578l56.338 59.803h19.355l-60.091-61.827 64.717-66.158h-20.802z" />
<glyph unicode="&#xe94b;" glyph-name="round_close" d="M512.565-9.079c-251.413 0-455.999 204.585-455.999 455.999s204.585 455.999 455.999 455.999 455.999-204.585 455.999-455.999c0.824-251.413-203.761-455.999-455.999-455.999zM512.565 865.952c-230.878 0-418.205-187.33-418.205-418.205s187.33-418.205 418.205-418.205 419.029 187.33 419.029 418.205c0 230.055-188.151 418.205-419.029 418.205zM717.969 271.097l-176.651 176.651 176.651 175.827-28.756 28.756-176.651-176.651-175.827 176.651-28.756-28.756 176.651-175.827-176.651-176.651 28.756-28.756 175.827 176.651 176.651-176.651z" />
<glyph unicode="&#xe94c;" glyph-name="icon20" d="M960.17-2.38h-895.999v895.999h895.999v-895.999zM101.737 35.186h819.763v820.873h-820.873v-820.873zM91.796 663.814h851.805v-37.56h-851.805v37.56zM720.431 17.501h-38.668v644.101h35.356v-19.889h3.314zM89.584 260.56h608.747v-37.56h-608.747v37.56z" />
<glyph unicode="&#xe94d;" glyph-name="check1" d="M859.645 782.896l-450.34-450.34-244.954 244.953-109.725-109.725 354.675-354.675 560.065 560.065z" />
<glyph unicode="&#xe94e;" glyph-name="collections" d="M853.333 789.333v-512h-512v512h512zM853.333 874.667h-512c-46.933 0-85.333-38.4-85.333-85.333v-512c0-46.933 38.4-85.333 85.333-85.333h512c46.933 0 85.333 38.4 85.333 85.333v512c0 46.933-38.4 85.333-85.333 85.333zM490.667 462.080l72.107-96.427 105.813 132.267 142.080-177.92h-426.667zM85.333 704v-597.333c0-46.933 38.4-85.333 85.333-85.333h597.333v85.333h-597.333v597.333h-85.333z" />
<glyph unicode="&#xe94f;" glyph-name="arrow_down" d="M316.16 593.493l195.84-195.413 195.84 195.413 60.16-60.16-256-256-256 256 60.16 60.16z" />
<glyph unicode="&#xe950;" glyph-name="arrow_left" d="M657.493 252.16l-195.413 195.84 195.413 195.84-60.16 60.16-256-256 256-256 60.16 60.16z" />
<glyph unicode="&#xe951;" glyph-name="arrow_right" d="M366.507 252.16l195.413 195.84-195.413 195.84 60.16 60.16 256-256-256-256-60.16 60.16z" />
<glyph unicode="&#xe952;" glyph-name="arrow_up" d="M316.16 302.507l195.84 195.413 195.84-195.413 60.16 60.16-256 256-256-256 60.16-60.16z" />
<glyph unicode="&#xe953;" glyph-name="open_in" d="M879.112 80.888h-734.223v734.223h367.112v104.887h-367.112c-58.212 0-104.887-47.2-104.887-104.887v-734.223c0-57.687 46.676-104.887 104.887-104.887h734.223c57.687 0 104.887 47.2 104.887 104.887v367.112h-104.887v-367.112zM616.887 919.999v-104.887h188.275l-515.527-515.527 73.948-73.948 515.527 515.527v-188.275h104.887v367.112h-367.112z" />
<glyph unicode="&#xe954;" glyph-name="delete" d="M883.636 845.090h-188.361l-50.91 50.91h-264.73l-50.91-50.91h-188.361v-132.36h50.91v-595.64c0-66.181 50.91-117.090 117.090-117.090h407.27c66.181 0 117.090 50.91 117.090 117.090v595.64h50.91v132.36zM715.636 30.54h-407.27c-45.82 0-86.548 40.729-86.548 86.548v595.64h580.361v-595.64c0-45.82-40.729-86.548-86.548-86.548zM853.087 743.269h-682.18v71.27h168l50.91 50.91h244.361l50.91-50.91h168v-71.27zM313.448 631.27h20.361v-504h-20.361v504zM405.086 631.27h20.361v-504h-20.361v504zM501.816 631.27h20.361v-504h-20.361v504zM593.448 631.27h20.361v-504h-20.361v504zM685.087 631.27h20.361v-504h-20.361v504z" />
<glyph unicode="&#xe955;" glyph-name="tag" d="M630.565 103.749l340.95 340.987-340.95 340.95 26.224 26.187 367.211-367.137-367.211-367.211zM0 451.264l367.211 367.211 26.224-26.224-340.987-340.987 340.95-340.95-26.187-26.261z" />
<glyph unicode="&#xe956;" glyph-name="t-right" d="M493.037 49.778v37.926h530.963v-37.926zM493.037 239.407v37.926h530.963v-37.926zM0 429.037v37.926h1024v-37.926zM265.481 618.667v37.926h758.519v-37.926zM0 808.296v37.926h1024v-37.926z" />
<glyph unicode="&#xe957;" glyph-name="t-left" d="M0 49.778v37.926h530.963v-37.926zM0 239.407v37.926h530.963v-37.926zM0 429.037v37.926h1024v-37.926zM0 618.667v37.926h758.519v-37.926zM0 808.296v37.926h1024v-37.926z" />
<glyph unicode="&#xe958;" glyph-name="t-center" d="M227.556 49.778v37.926h606.815v-37.926zM227.556 239.407v37.926h606.815v-37.926zM0 429.037v37.926h1024v-37.926zM113.778 618.667v37.926h834.37v-37.926zM0 808.296v37.926h1024v-37.926z" />
<glyph unicode="&#xe963;" glyph-name="xxs_arroay_l" d="M740.442 952.076l-503.891-503.891 47.234-47.234 503.891 503.891-47.234 47.234zM787.383-8.689l-503.891 503.891-47.234-47.234 503.891-503.891 47.234 47.234z" />
<glyph unicode="&#xe964;" glyph-name="xxs_arroay_r" d="M283.558 952.076l503.891-503.891-47.234-47.234-503.891 503.891 47.234 47.234zM236.617-8.689l503.891 503.891 47.234-47.234-503.891-503.891-47.234 47.234z" />
<glyph unicode="&#xe973;" glyph-name="arrow_ty1_l" d="M713.401 952.12l-503.686-503.686 100.744-100.744 503.686 503.686-100.744 100.744zM814.371 44.867l-503.686 503.686-100.744-100.744 503.686-503.686 100.744 100.744z" />
<glyph unicode="&#xe9f4;" glyph-name="close" d="M931.926 946.841l81.036-81.036-908.243-908.243-81.036 81.036 908.243 908.243zM1013.37 41.32l-81.036-81.036-908.243 908.243 81.036 81.036 908.243-908.243z" />
<glyph unicode="&#xe9f5;" glyph-name="search" d="M1015.032 33.833l-225.018 225.018c57.070 73.375 89.682 166.319 89.682 265.784 0 120.661-48.918 229.91-127.185 308.179s-187.515 127.185-308.179 127.185c-120.661 0-229.91-48.918-308.179-127.185s-127.185-187.515-127.185-308.179c0-120.661 48.918-229.91 127.185-308.179s187.515-127.185 308.179-127.185c89.682 0 174.471 27.719 244.586 75.006l228.279-228.279 97.834 97.834zM229.097 309.398c-55.439 55.439-89.682 130.445-89.682 215.235s34.243 159.796 89.682 215.235c55.439 55.439 130.445 89.682 215.235 89.682s159.796-34.243 215.235-89.682c55.439-55.439 89.682-130.445 89.682-215.235s-34.243-159.796-89.682-215.235c-55.439-55.439-130.445-89.682-215.235-89.682s-159.796 34.243-215.235 89.682z" />
<glyph unicode="&#xe9f6;" glyph-name="tel" d="M745.405 32.378h-466.823c-104.141 0.135-188.504 84.583-188.504 188.736 0 19.154 2.855 37.635 8.149 55.049l-0.355-1.336 72.279 241.947c4.816 15.625 19.13 26.789 36.041 26.789 3.971 0 7.806-0.613 11.409-1.765l-0.27 0.074c15.588-4.645 26.765-18.848 26.765-35.662 0-3.934-0.613-7.721-1.74-11.274l0.074 0.257-72.279-241.947c-3.051-9.767-4.816-20.993-4.816-32.622 0-62.377 50.563-112.94 112.94-112.94 0.11 0 0.208 0 0.319 0h466.811c0.086 0 0.196 0 0.294 0 62.377 0 112.94 50.563 112.94 112.94 0 11.642-1.765 22.867-5.024 33.431l0.208-0.797-74.289 247.964c-1.005 3.235-1.581 6.948-1.581 10.796 0 20.833 16.887 37.72 37.72 37.72 16.985 0 31.348-11.225 36.066-26.654l0.074-0.27 74.289-247.964c4.951-16.078 7.806-34.559 7.806-53.713 0-104.154-84.374-188.602-188.491-188.736h-0.012zM986.347 474.103h-285.611c-20.796 0-37.647 16.85-37.647 37.647v0 92.867h-301.174v-92.867c0-20.796-16.85-37.647-37.647-37.647v0h-285.611c-20.796 0-37.647 16.85-37.647 37.647v0 123.48c0 126.139 102.254 228.393 228.393 228.393h567.214c126.139 0 228.393-102.254 228.393-228.393v0-123.48c0 0 0-0.012 0-0.012 0-20.796-16.85-37.647-37.647-37.647-0.355 0-0.711 0-1.054 0.012h0.049zM738.383 549.396h210.317v85.833c0 83.161-67.426 150.587-150.587 150.587v0h-567.214c-83.161 0-150.587-67.426-150.587-150.587v0-86.838h210.317v92.867c0 20.796 16.85 37.647 37.647 37.647v0h377.473c20.796 0 37.647-16.85 37.647-37.647v0zM512 176.445c-0.147 0-0.331 0-0.502 0-90.649 0-164.141 73.492-164.141 164.141s73.492 164.141 164.141 164.141c90.649 0 164.141-73.492 164.141-164.141 0-0.172 0-0.355 0-0.527v0.025c0-90.379-73.259-163.639-163.639-163.639v0zM512 427.424c-0.147 0-0.331 0-0.502 0-49.068 0-88.847-39.779-88.847-88.847s39.779-88.847 88.847-88.847c49.068 0 88.847 39.779 88.847 88.847v0c0.012 0.6 0.025 1.299 0.025 2.010 0 48.786-39.559 88.345-88.345 88.345-0.012 0-0.012 0-0.025 0v0z" />
</font>
</defs>
</svg>
