<svg xmlns="http://www.w3.org/2000/svg" viewBox="0 0 32 32" width="32" height="32"><path d="M27.2 20.4L21.7 9.2l2.9-4.6c0.2-0.3 0.2-0.7 0-1C24.5 3.2 24.2 3 23.8 3H7.7C7.4 3 7 3.2 6.9 3.5c-0.2 0.3-0.2 0.7 0 1l2.9 4.6L4.4 20.4c-0.9 1.9-0.8 4.1 0.3 5.9 1.1 1.8 3 2.8 5.2 2.8h11.8c2.1 0 4-1.1 5.2-2.8C27.9 24.5 28.1 22.3 27.2 20.4zM22 5l-2 3.1h-8.5L9.6 5H22zM25.1 25.2c-0.8 1.2-2 1.9-3.5 1.9H9.9c-1.4 0-2.7-0.7-3.5-1.9 -0.8-1.2-0.8-2.7-0.2-3.9l5.4-11.1H20l5.4 11.1C26 22.6 25.9 24 25.1 25.2z"/><path d="M18.6 15.9c0.6 0 1-0.4 1-1s-0.4-1-1-1h-1.8v-0.4c0-0.6-0.4-1-1-1s-1 0.4-1 1v0.4C13.2 14 12 15.2 12 16.8c0 1.6 1.2 2.8 2.8 2.9v1.8H13c-0.6 0-1 0.4-1 1s0.4 1 1 1h1.8v0.4c0 0.6 0.4 1 1 1s1-0.4 1-1v-0.4c1.5-0.1 2.8-1.3 2.8-2.9s-1.2-2.8-2.8-2.9v-1.8H18.6zM14 16.8c0-0.4 0.3-0.8 0.8-0.9v1.7C14.3 17.6 14 17.2 14 16.8zM17.6 20.6c0 0.4-0.3 0.8-0.8 0.9v-1.7C17.2 19.7 17.6 20.1 17.6 20.6z"/></svg>