<svg xmlns="http://www.w3.org/2000/svg" viewBox="0 0 32 32" width="32" height="32"><path d="M25.8 19.2C25.8 19.2 25.8 19.2 25.8 19.2l-4-1.3c-1-0.3-1.7-1.2-1.8-2.2 1.2-0.8 2-2.2 2-3.7V7.6c0-2.4-2-4.4-4.4-4.4h-1.9c-2.4 0-4.4 2-4.4 4.4V12c0 1.5 0.8 2.9 2 3.7 -0.1 1-0.8 1.9-1.8 2.2l-4 1.3c-2.1 0.7-3.5 2.6-3.5 4.8v4c0 0.6 0.4 1 1 1h23.3c0.6 0 1-0.4 1-1v-4C29.4 21.8 27.9 19.8 25.8 19.2zM27.4 27H6.1v-3c0-1.3 0.9-2.5 2.1-2.9l4-1.3c1.9-0.6 3.2-2.4 3.2-4.4v-0.3c0-0.4-0.2-0.8-0.6-0.9 -0.9-0.4-1.4-1.2-1.4-2.2V7.6c0-1.3 1.1-2.4 2.4-2.4h1.9C19 5.2 20 6.3 20 7.6V12c0 0.9-0.6 1.8-1.4 2.2 -0.4 0.2-0.6 0.5-0.6 0.9v0.3c0 2 1.3 3.8 3.3 4.4l4 1.3c1.3 0.4 2.2 1.6 2.2 2.9V27z"/></svg>