<svg xmlns="http://www.w3.org/2000/svg" viewBox="0 0 32 32" width="32" height="32"><path d="M28 3.2C28 3.2 28 3.2 28 3.2c-0.1 0-0.1-0.1-0.1-0.1 0 0 0 0 0 0 0 0 0 0 0 0 0 0-0.1 0-0.1 0 0 0 0 0 0 0 0 0 0 0 0 0 0 0 0 0 0 0 0 0-0.1 0-0.1 0 0 0-0.1 0-0.1 0 0 0 0 0-0.1 0 0 0 0 0 0 0h0c0 0 0 0 0 0 0 0-0.1 0-0.1 0 0 0 0 0 0 0 0 0-0.1 0-0.1 0 0 0-0.1 0-0.1 0 0 0 0 0 0 0l0 0c0 0 0 0 0 0 0 0 0 0 0 0L3.3 11.7c-0.3 0.1-0.6 0.4-0.6 0.7 -0.1 0.3 0 0.7 0.3 0.9l5.2 5.2L6.1 24c-0.1 0.4-0.1 0.8 0.2 1.1 0.2 0.2 0.4 0.3 0.7 0.3 0.1 0 0.2 0 0.4-0.1l5.4-2.1 5.3 5.3c0.2 0.2 0.4 0.3 0.7 0.3 0.1 0 0.1 0 0.2 0 0.3-0.1 0.6-0.3 0.7-0.6l8.6-23.6c0-0.1 0.1-0.2 0.1-0.3 0 0 0 0 0 0 0-0.1 0-0.1 0-0.2C28.4 3.7 28.2 3.4 28 3.2zM5.5 13L22 7 9.5 17c0 0 0 0-0.1 0L5.5 13zM12.4 21.2l-3.6 1.4 1.4-3.6L21 10.3 12.4 21.2zM18.4 25.9l-4-4 10-12.5L18.4 25.9z"/></svg>