<svg xmlns="http://www.w3.org/2000/svg" viewBox="0 0 32 32" width="32" height="32"><path d="M26.3 22.7C26.3 22.6 26.3 22.6 26.3 22.7l0-18c0-0.6-0.4-1-1-1H6.8c-0.6 0-1 0.4-1 1v24.3c0 0.6 0.4 1 1 1H19c0.1 0 0.3 0 0.4-0.1 0.1 0 0.2-0.1 0.3-0.2l6.3-6.3c0.1-0.1 0.1-0.2 0.2-0.3 0 0 0-0.1 0-0.1C26.3 22.8 26.3 22.7 26.3 22.7zM7.8 5.6h16.6v16H19c-0.6 0-1 0.4-1 1v5.3H7.8V5.6zM20 26.5v-2.9h2.9L20 26.5z"/><path d="M11 11.1h10.1c0.6 0 1-0.4 1-1s-0.4-1-1-1H11c-0.6 0-1 0.4-1 1S10.5 11.1 11 11.1z"/><path d="M11 15.1h10.1c0.6 0 1-0.4 1-1s-0.4-1-1-1H11c-0.6 0-1 0.4-1 1S10.5 15.1 11 15.1z"/><path d="M16.5 17H11c-0.6 0-1 0.4-1 1s0.4 1 1 1h5.5c0.6 0 1-0.4 1-1S17 17 16.5 17z"/></svg>