<svg xmlns="http://www.w3.org/2000/svg" viewBox="0 0 32 32" width="32" height="32"><path d="M30.8 7.3C30.8 7.3 30.8 7.3 30.8 7.3c0-0.1 0-0.2-0.1-0.3 0 0 0 0 0 0 0 0 0-0.1 0-0.1 0-0.1-0.1-0.2-0.1-0.2 0 0-0.1-0.1-0.1-0.1 -0.1-0.1-0.1-0.1-0.2-0.1 0 0-0.1 0-0.1 0 -0.1 0-0.2-0.1-0.4-0.1H3c-0.1 0-0.2 0-0.4 0.1 0 0-0.1 0-0.1 0 -0.1 0-0.1 0.1-0.2 0.1 0 0-0.1 0-0.1 0.1C2.2 6.7 2.1 6.7 2.1 6.8c0 0 0 0.1 0 0.1 0 0 0 0 0 0C2 7 2 7.2 2 7.3c0 0 0 0 0 0v18.1c0 0 0 0 0 0 0 0.1 0 0.2 0.1 0.3 0 0 0 0 0 0 0 0 0 0.1 0 0.1 0 0.1 0.1 0.2 0.1 0.2 0 0 0.1 0.1 0.1 0.1 0.1 0.1 0.1 0.1 0.2 0.1 0 0 0.1 0 0.1 0 0.1 0 0.2 0.1 0.4 0.1h26.8c0.1 0 0.2 0 0.4-0.1 0 0 0.1 0 0.1 0 0.1 0 0.1-0.1 0.2-0.1 0 0 0.1 0 0.1-0.1 0.1-0.1 0.1-0.1 0.1-0.2 0 0 0-0.1 0-0.1 0 0 0 0 0 0 0-0.1 0.1-0.2 0.1-0.3 0 0 0 0 0 0V7.3zM27.1 8.3l-8.3 7.1H14L5.7 8.3H27.1zM28.8 9.4v13.8l-8.1-6.9L28.8 9.4zM12.1 16.3L4 23.2V9.4L12.1 16.3zM5.7 24.4l8.3-7.1h4.7l8.3 7.1H5.7z"/></svg>